<mxfile host="app.diagrams.net" modified="2023-06-02T04:24:54.945Z" agent="Mozilla/5.0 (Windows NT 10.0; Win64; x64) AppleWebKit/537.36 (KHTML, like Gecko) Chrome/113.0.0.0 Safari/537.36" etag="4QZm7876ANnqDzTCK0AZ" version="21.3.6" type="device">
  <diagram name="Página-1" id="lAGo4y5UUJqx52rS7SiA">
    <mxGraphModel dx="1257" dy="740" grid="0" gridSize="10" guides="1" tooltips="1" connect="1" arrows="0" fold="1" page="1" pageScale="1" pageWidth="827" pageHeight="1169" background="#CCDDFF" math="0" shadow="0">
      <root>
        <mxCell id="0" />
        <mxCell id="1" parent="0" />
        <UserObject label="&lt;div style=&quot;font-size: 1px&quot;&gt;&lt;font style=&quot;font-size:11.29px;font-family:Helvetica;color:#000000;direction:ltr;letter-spacing:0px;line-height:120%;opacity:1&quot;&gt;Usuario&lt;/font&gt;&lt;font style=&quot;font-size:0.97px;font-family:Helvetica;color:#000000;direction:ltr;letter-spacing:0px;line-height:120%;opacity:1&quot;&gt;&lt;br/&gt;&lt;/font&gt;&lt;/div&gt;" tags="Background" id="6e-DpXRyT5qqWeavbAGu-1">
          <mxCell style="verticalAlign=middle;align=center;overflow=width;vsdxID=1;shape=stencil(nZBRDoQgDERP03+WHsHFe5iISyOCQdT19kIaIxq//Jtp3zTpAFaTaUYNUkwx+F6v1EYD+AUpyRkdKCYFqACrzgf9C352LfuxyWRWg1/yhT/nRE5IsZWuZtCSK8CPeI0e/hF+jV7AJM4PO7KWCyr390bSiNtEtQM=);spacingTop=-3;spacingBottom=-3;spacingLeft=-3;spacingRight=-3;points=[];labelBackgroundColor=none;rounded=0;html=1;whiteSpace=wrap;fillColor=#FAE5C7;strokeColor=#0F8B8D;fontColor=#143642;" parent="1" vertex="1">
            <mxGeometry x="940" y="1169" width="100" height="40" as="geometry" />
          </mxCell>
        </UserObject>
        <mxCell id="6e-DpXRyT5qqWeavbAGu-184" style="edgeStyle=orthogonalEdgeStyle;rounded=0;orthogonalLoop=1;jettySize=auto;html=1;entryX=0.01;entryY=0.45;entryDx=0;entryDy=0;entryPerimeter=0;endArrow=none;endFill=0;labelBackgroundColor=none;fontColor=default;strokeColor=#A8201A;" parent="1" source="6e-DpXRyT5qqWeavbAGu-2" target="6e-DpXRyT5qqWeavbAGu-1" edge="1">
          <mxGeometry relative="1" as="geometry" />
        </mxCell>
        <UserObject label="&lt;div style=&quot;font-size: 1px&quot;&gt;&lt;font style=&quot;font-size:11.29px;font-family:Helvetica;color:#000000;direction:ltr;letter-spacing:0px;line-height:120%;opacity:1&quot;&gt;&lt;u&gt;Id_Usuario&lt;/u&gt;&lt;/font&gt;&lt;font style=&quot;font-size:0.97px;font-family:Helvetica;color:#000000;direction:ltr;letter-spacing:0px;line-height:120%;opacity:1&quot;&gt;&lt;br/&gt;&lt;/font&gt;&lt;/div&gt;" tags="Background" id="6e-DpXRyT5qqWeavbAGu-2">
          <mxCell style="verticalAlign=middle;align=center;overflow=width;vsdxID=2;shape=stencil(jZLdDoIwDIWfZrdka6PEa8T3MDJkERkZoOPtZekIG/h313an/XaaMsy66txKBrzrjb7Jpyr6iuGRAaimkkb1U8QwZ5iV2sir0UNTUN6endJFd/1wEyz1cdcBfKRsR+mJlJfBkFTEWp+mabIXVLJAJYAED17lS4L7NosRg48YCz5AA8oMXkauGTM0/BquNfiP10UuNtbsljKDf3j9igyXF2/cxtPH7bYtxoq3HqdgOYNS1TVdUfi+PpupRCeH+Qs=);spacingTop=-3;spacingBottom=-3;spacingLeft=-3;spacingRight=-3;points=[];labelBackgroundColor=none;rounded=0;html=1;whiteSpace=wrap;fillColor=#FAE5C7;strokeColor=#0F8B8D;fontColor=#143642;" parent="1" vertex="1">
            <mxGeometry x="710" y="1166" width="103" height="40" as="geometry" />
          </mxCell>
        </UserObject>
        <UserObject label="&lt;div style=&quot;font-size: 1px&quot;&gt;&lt;font style=&quot;font-size:11.29px;font-family:Helvetica;color:#000000;direction:ltr;letter-spacing:0px;line-height:120%;opacity:1&quot;&gt;Nombre&lt;/font&gt;&lt;font style=&quot;font-size:0.97px;font-family:Helvetica;color:#000000;direction:ltr;letter-spacing:0px;line-height:120%;opacity:1&quot;&gt;&lt;br/&gt;&lt;/font&gt;&lt;/div&gt;" tags="Background" id="6e-DpXRyT5qqWeavbAGu-3">
          <mxCell style="verticalAlign=middle;align=center;overflow=width;vsdxID=3;shape=stencil(jZLdDoIwDIWfZrdka6PEa8T3MDJkERkZoOPtZekIG/h313an/XaaMsy66txKBrzrjb7Jpyr6iuGRAaimkkb1U8QwZ5iV2sir0UNTUN6endJFd/1wEyz1cdcBfKRsR+mJlJfBkFTEWp+mabIXVLJAJYAED17lS4L7NosRg48YCz5AA8oMXkauGTM0/BquNfiP10UuNtbsljKDf3j9igyXF2/cxtPH7bYtxoq3HqdgOYNS1TVdUfi+PpupRCeH+Qs=);spacingTop=-3;spacingBottom=-3;spacingLeft=-3;spacingRight=-3;points=[];labelBackgroundColor=none;rounded=0;html=1;whiteSpace=wrap;fillColor=#FAE5C7;strokeColor=#0F8B8D;fontColor=#143642;" parent="1" vertex="1">
            <mxGeometry x="740" y="920" width="100" height="40" as="geometry" />
          </mxCell>
        </UserObject>
        <UserObject label="&lt;div style=&quot;font-size: 1px&quot;&gt;&lt;font style=&quot;font-size:11.29px;font-family:Helvetica;color:#000000;direction:ltr;letter-spacing:0px;line-height:120%;opacity:1&quot;&gt;A_Paterno&lt;/font&gt;&lt;font style=&quot;font-size:0.97px;font-family:Helvetica;color:#000000;direction:ltr;letter-spacing:0px;line-height:120%;opacity:1&quot;&gt;&lt;br&gt;&lt;/font&gt;&lt;/div&gt;" tags="Background" id="6e-DpXRyT5qqWeavbAGu-4">
          <mxCell style="verticalAlign=middle;align=center;overflow=width;vsdxID=4;shape=stencil(jZLdDoIwDIWfZrdka6PEa8T3MDJkERkZoOPtZekIG/h313an/XaaMsy66txKBrzrjb7Jpyr6iuGRAaimkkb1U8QwZ5iV2sir0UNTUN6endJFd/1wEyz1cdcBfKRsR+mJlJfBkFTEWp+mabIXVLJAJYAED17lS4L7NosRg48YCz5AA8oMXkauGTM0/BquNfiP10UuNtbsljKDf3j9igyXF2/cxtPH7bYtxoq3HqdgOYNS1TVdUfi+PpupRCeH+Qs=);spacingTop=-3;spacingBottom=-3;spacingLeft=-3;spacingRight=-3;points=[];labelBackgroundColor=none;rounded=0;html=1;whiteSpace=wrap;fillColor=#FAE5C7;strokeColor=#0F8B8D;fontColor=#143642;" parent="1" vertex="1">
            <mxGeometry x="740" y="990" width="100" height="40" as="geometry" />
          </mxCell>
        </UserObject>
        <UserObject label="&lt;div style=&quot;font-size: 1px&quot;&gt;&lt;font style=&quot;font-size:11.29px;font-family:Helvetica;color:#000000;direction:ltr;letter-spacing:0px;line-height:120%;opacity:1&quot;&gt;A_Materno&lt;/font&gt;&lt;font style=&quot;font-size:0.97px;font-family:Helvetica;color:#000000;direction:ltr;letter-spacing:0px;line-height:120%;opacity:1&quot;&gt;&lt;br&gt;&lt;/font&gt;&lt;/div&gt;" tags="Background" id="6e-DpXRyT5qqWeavbAGu-5">
          <mxCell style="verticalAlign=middle;align=center;overflow=width;vsdxID=5;shape=stencil(jZLdDoIwDIWfZrdka6PEa8T3MDJkERkZoOPtZekIG/h313an/XaaMsy66txKBrzrjb7Jpyr6iuGRAaimkkb1U8QwZ5iV2sir0UNTUN6endJFd/1wEyz1cdcBfKRsR+mJlJfBkFTEWp+mabIXVLJAJYAED17lS4L7NosRg48YCz5AA8oMXkauGTM0/BquNfiP10UuNtbsljKDf3j9igyXF2/cxtPH7bYtxoq3HqdgOYNS1TVdUfi+PpupRCeH+Qs=);spacingTop=-3;spacingBottom=-3;spacingLeft=-3;spacingRight=-3;points=[];labelBackgroundColor=none;rounded=0;html=1;whiteSpace=wrap;fillColor=#FAE5C7;strokeColor=#0F8B8D;fontColor=#143642;" parent="1" vertex="1">
            <mxGeometry x="740" y="1050" width="100" height="40" as="geometry" />
          </mxCell>
        </UserObject>
        <UserObject label="&lt;div style=&quot;font-size: 1px&quot;&gt;&lt;font style=&quot;font-size:11.29px;font-family:Helvetica;color:#000000;direction:ltr;letter-spacing:0px;line-height:120%;opacity:1&quot;&gt;Teléfono&lt;/font&gt;&lt;font style=&quot;font-size:0.97px;font-family:Helvetica;color:#000000;direction:ltr;letter-spacing:0px;line-height:120%;opacity:1&quot;&gt;&lt;br/&gt;&lt;/font&gt;&lt;/div&gt;" tags="Background" id="6e-DpXRyT5qqWeavbAGu-6">
          <mxCell style="verticalAlign=middle;align=center;overflow=width;vsdxID=6;shape=stencil(jZLdDoIwDIWfZrdka6PEa8T3MDJkERkZoOPtZekIG/h313an/XaaMsy66txKBrzrjb7Jpyr6iuGRAaimkkb1U8QwZ5iV2sir0UNTUN6endJFd/1wEyz1cdcBfKRsR+mJlJfBkFTEWp+mabIXVLJAJYAED17lS4L7NosRg48YCz5AA8oMXkauGTM0/BquNfiP10UuNtbsljKDf3j9igyXF2/cxtPH7bYtxoq3HqdgOYNS1TVdUfi+PpupRCeH+Qs=);spacingTop=-3;spacingBottom=-3;spacingLeft=-3;spacingRight=-3;points=[];labelBackgroundColor=none;rounded=0;html=1;whiteSpace=wrap;fillColor=#FAE5C7;strokeColor=#0F8B8D;fontColor=#143642;" parent="1" vertex="1">
            <mxGeometry x="1011" y="990" width="100" height="40" as="geometry" />
          </mxCell>
        </UserObject>
        <UserObject label="&lt;span style=&quot;font-size: 11.29px;&quot;&gt;Email&lt;/span&gt;" tags="Background" id="6e-DpXRyT5qqWeavbAGu-7">
          <mxCell style="verticalAlign=middle;align=center;overflow=width;vsdxID=7;shape=stencil(jZLdDoIwDIWfZrdka6PEa8T3MDJkERkZoOPtZekIG/h313an/XaaMsy66txKBrzrjb7Jpyr6iuGRAaimkkb1U8QwZ5iV2sir0UNTUN6endJFd/1wEyz1cdcBfKRsR+mJlJfBkFTEWp+mabIXVLJAJYAED17lS4L7NosRg48YCz5AA8oMXkauGTM0/BquNfiP10UuNtbsljKDf3j9igyXF2/cxtPH7bYtxoq3HqdgOYNS1TVdUfi+PpupRCeH+Qs=);spacingTop=-3;spacingBottom=-3;spacingLeft=-3;spacingRight=-3;points=[];labelBackgroundColor=none;rounded=0;html=1;whiteSpace=wrap;fillColor=#FAE5C7;strokeColor=#0F8B8D;fontColor=#143642;" parent="1" vertex="1">
            <mxGeometry x="1011" y="1050" width="100" height="40" as="geometry" />
          </mxCell>
        </UserObject>
        <mxCell id="6e-DpXRyT5qqWeavbAGu-219" style="edgeStyle=orthogonalEdgeStyle;rounded=0;orthogonalLoop=1;jettySize=auto;html=1;entryX=0.08;entryY=1.05;entryDx=0;entryDy=0;entryPerimeter=0;endArrow=none;endFill=0;labelBackgroundColor=none;fontColor=default;strokeColor=#A8201A;" parent="1" source="6e-DpXRyT5qqWeavbAGu-8" target="6e-DpXRyT5qqWeavbAGu-1" edge="1">
          <mxGeometry relative="1" as="geometry" />
        </mxCell>
        <UserObject label="&lt;span style=&quot;font-size: 11.29px;&quot;&gt;&amp;nbsp; &amp;nbsp; &amp;nbsp; &amp;nbsp; Id_Plantel&lt;/span&gt;" tags="Background" id="6e-DpXRyT5qqWeavbAGu-8">
          <mxCell style="verticalAlign=middle;align=left;overflow=width;vsdxID=8;shape=stencil(jZLdDoIwDIWfZrdka6PEa8T3MDJkERkZoOPtZekIG/h313an/XaaMsy66txKBrzrjb7Jpyr6iuGRAaimkkb1U8QwZ5iV2sir0UNTUN6endJFd/1wEyz1cdcBfKRsR+mJlJfBkFTEWp+mabIXVLJAJYAED17lS4L7NosRg48YCz5AA8oMXkauGTM0/BquNfiP10UuNtbsljKDf3j9igyXF2/cxtPH7bYtxoq3HqdgOYNS1TVdUfi+PpupRCeH+Qs=);spacingTop=-3;spacingBottom=-3;spacingLeft=-3;spacingRight=-3;points=[];labelBackgroundColor=none;rounded=0;html=1;whiteSpace=wrap;fillColor=#FAE5C7;strokeColor=#0F8B8D;fontColor=#143642;" parent="1" vertex="1">
            <mxGeometry x="706" y="1225" width="100" height="40" as="geometry" />
          </mxCell>
        </UserObject>
        <UserObject label="&lt;div style=&quot;font-size: 1px&quot;&gt;&lt;font style=&quot;font-size:11.29px;font-family:Helvetica;color:#000000;direction:ltr;letter-spacing:0px;line-height:120%;opacity:1&quot;&gt;Tiene&lt;/font&gt;&lt;font style=&quot;font-size:0.97px;font-family:Helvetica;color:#000000;direction:ltr;letter-spacing:0px;line-height:120%;opacity:1&quot;&gt;&lt;br/&gt;&lt;/font&gt;&lt;/div&gt;" tags="Background" id="6e-DpXRyT5qqWeavbAGu-10">
          <mxCell style="verticalAlign=middle;align=center;overflow=width;vsdxID=10;shape=stencil(nZBLDoQgEERP03uk4wnUuYeJKB0RDDKj3l5Ix/iJcTG7KnhVSRdgMel6VCDFFLzr1UxN0IAlSElWK08hKsAKsGidV513X9uwH+tEJjW4X2pYOJeLFJFiZcvuw6QheyIzcUXzF/bWukcf2b9bL2QUx4ktGcMLnf/vk8QnnhOrDQ==);spacingTop=-3;spacingBottom=-3;spacingLeft=-3;spacingRight=-3;points=[];labelBackgroundColor=none;rounded=0;html=1;whiteSpace=wrap;fillColor=#FAE5C7;strokeColor=#0F8B8D;fontColor=#143642;" parent="1" vertex="1">
            <mxGeometry x="1891" y="1123" width="120" height="60" as="geometry" />
          </mxCell>
        </UserObject>
        <mxCell id="m5P5q0p0tQF4HmMwArrf-94" style="edgeStyle=orthogonalEdgeStyle;rounded=0;orthogonalLoop=1;jettySize=auto;html=1;entryX=0.531;entryY=0.021;entryDx=0;entryDy=0;entryPerimeter=0;fontColor=default;endArrow=none;endFill=0;labelBackgroundColor=none;strokeColor=#A8201A;" edge="1" parent="1" target="m5P5q0p0tQF4HmMwArrf-87">
          <mxGeometry relative="1" as="geometry">
            <mxPoint x="1158" y="1683" as="sourcePoint" />
          </mxGeometry>
        </mxCell>
        <UserObject label="&lt;div style=&quot;font-size: 1px&quot;&gt;&lt;font style=&quot;font-size:11.29px;font-family:Helvetica;color:#000000;direction:ltr;letter-spacing:0px;line-height:120%;opacity:1&quot;&gt;T_Usuario&lt;/font&gt;&lt;font style=&quot;font-size:0.97px;font-family:Helvetica;color:#000000;direction:ltr;letter-spacing:0px;line-height:120%;opacity:1&quot;&gt;&lt;br&gt;&lt;/font&gt;&lt;/div&gt;" tags="Background" id="6e-DpXRyT5qqWeavbAGu-11">
          <mxCell style="verticalAlign=middle;align=center;overflow=width;vsdxID=11;shape=stencil(nZBRDoQgDERP03+WHsHFe5iISyOCQdT19kIaIxq//Jtp3zTpAFaTaUYNUkwx+F6v1EYD+AUpyRkdKCYFqACrzgf9C352LfuxyWRWg1/yhT/nRE5IsZWuZtCSK8CPeI0e/hF+jV7AJM4PO7KWCyr390bSiNtEtQM=);spacingTop=-3;spacingBottom=-3;spacingLeft=-3;spacingRight=-3;points=[];labelBackgroundColor=none;rounded=0;html=1;whiteSpace=wrap;fillColor=#FAE5C7;strokeColor=#0F8B8D;fontColor=#143642;" parent="1" vertex="1">
            <mxGeometry x="1056.5" y="1655" width="100" height="40" as="geometry" />
          </mxCell>
        </UserObject>
        <mxCell id="6e-DpXRyT5qqWeavbAGu-160" style="edgeStyle=orthogonalEdgeStyle;rounded=0;orthogonalLoop=1;jettySize=auto;html=1;entryX=0.01;entryY=0.6;entryDx=0;entryDy=0;entryPerimeter=0;endArrow=none;endFill=0;labelBackgroundColor=none;fontColor=default;strokeColor=#A8201A;" parent="1" source="6e-DpXRyT5qqWeavbAGu-14" target="6e-DpXRyT5qqWeavbAGu-11" edge="1">
          <mxGeometry relative="1" as="geometry" />
        </mxCell>
        <UserObject label="&lt;div style=&quot;font-size: 1px&quot;&gt;&lt;font style=&quot;font-size:11.29px;font-family:Helvetica;color:#000000;direction:ltr;letter-spacing:0px;line-height:120%;opacity:1&quot;&gt;&lt;u&gt;id_TUsuario&lt;/u&gt;&lt;/font&gt;&lt;font style=&quot;font-size:0.97px;font-family:Helvetica;color:#000000;direction:ltr;letter-spacing:0px;line-height:120%;opacity:1&quot;&gt;&lt;br&gt;&lt;/font&gt;&lt;/div&gt;" tags="Background" id="6e-DpXRyT5qqWeavbAGu-14">
          <mxCell style="verticalAlign=middle;align=center;overflow=width;vsdxID=13;shape=stencil(jZLdDoIwDIWfZrdka6PEa8T3MDJkERkZoOPtZekIG/h313an/XaaMsy66txKBrzrjb7Jpyr6iuGRAaimkkb1U8QwZ5iV2sir0UNTUN6endJFd/1wEyz1cdcBfKRsR+mJlJfBkFTEWp+mabIXVLJAJYAED17lS4L7NosRg48YCz5AA8oMXkauGTM0/BquNfiP10UuNtbsljKDf3j9igyXF2/cxtPH7bYtxoq3HqdgOYNS1TVdUfi+PpupRCeH+Qs=);spacingTop=-3;spacingBottom=-3;spacingLeft=-3;spacingRight=-3;points=[];labelBackgroundColor=none;rounded=0;html=1;whiteSpace=wrap;fillColor=#FAE5C7;strokeColor=#0F8B8D;fontColor=#143642;" parent="1" vertex="1">
            <mxGeometry x="907" y="1744" width="90" height="40" as="geometry" />
          </mxCell>
        </UserObject>
        <UserObject label="&lt;div style=&quot;font-size: 1px&quot;&gt;&lt;font style=&quot;font-size:11.29px;font-family:Helvetica;color:#000000;direction:ltr;letter-spacing:0px;line-height:120%;opacity:1&quot;&gt;Tiene&lt;/font&gt;&lt;font style=&quot;font-size:0.97px;font-family:Helvetica;color:#000000;direction:ltr;letter-spacing:0px;line-height:120%;opacity:1&quot;&gt;&lt;br/&gt;&lt;/font&gt;&lt;/div&gt;" tags="Background" id="6e-DpXRyT5qqWeavbAGu-15">
          <mxCell style="verticalAlign=middle;align=center;overflow=width;vsdxID=34;shape=stencil(nZBLDoQgEERP03uk4wnUuYeJKB0RDDKj3l5Ix/iJcTG7KnhVSRdgMel6VCDFFLzr1UxN0IAlSElWK08hKsAKsGidV513X9uwH+tEJjW4X2pYOJeLFJFiZcvuw6QheyIzcUXzF/bWukcf2b9bL2QUx4ktGcMLnf/vk8QnnhOrDQ==);spacingTop=-3;spacingBottom=-3;spacingLeft=-3;spacingRight=-3;points=[];labelBackgroundColor=none;rounded=0;html=1;whiteSpace=wrap;fillColor=#FAE5C7;strokeColor=#0F8B8D;fontColor=#143642;" parent="1" vertex="1">
            <mxGeometry x="1231" y="1152" width="120" height="60" as="geometry" />
          </mxCell>
        </UserObject>
        <mxCell id="6e-DpXRyT5qqWeavbAGu-154" style="edgeStyle=orthogonalEdgeStyle;rounded=0;orthogonalLoop=1;jettySize=auto;html=1;endArrow=none;endFill=0;labelBackgroundColor=none;fontColor=default;strokeColor=#A8201A;" parent="1" source="6e-DpXRyT5qqWeavbAGu-34" target="6e-DpXRyT5qqWeavbAGu-1" edge="1">
          <mxGeometry relative="1" as="geometry" />
        </mxCell>
        <UserObject label="&lt;div style=&quot;font-size: 1px&quot;&gt;&lt;font style=&quot;font-size:11.29px;font-family:Helvetica;color:#000000;direction:ltr;letter-spacing:0px;line-height:120%;opacity:1&quot;&gt;Id_TUsuario&lt;/font&gt;&lt;font style=&quot;font-size:0.97px;font-family:Helvetica;color:#000000;direction:ltr;letter-spacing:0px;line-height:120%;opacity:1&quot;&gt;&lt;br&gt;&lt;/font&gt;&lt;/div&gt;" tags="Background" id="6e-DpXRyT5qqWeavbAGu-34">
          <mxCell style="verticalAlign=middle;align=center;overflow=width;vsdxID=59;shape=stencil(jZLdDoIwDIWfZrdka6PEa8T3MDJkERkZoOPtZekIG/h313an/XaaMsy66txKBrzrjb7Jpyr6iuGRAaimkkb1U8QwZ5iV2sir0UNTUN6endJFd/1wEyz1cdcBfKRsR+mJlJfBkFTEWp+mabIXVLJAJYAED17lS4L7NosRg48YCz5AA8oMXkauGTM0/BquNfiP10UuNtbsljKDf3j9igyXF2/cxtPH7bYtxoq3HqdgOYNS1TVdUfi+PpupRCeH+Qs=);spacingTop=-3;spacingBottom=-3;spacingLeft=-3;spacingRight=-3;points=[];labelBackgroundColor=none;rounded=0;html=1;whiteSpace=wrap;fillColor=#FAE5C7;strokeColor=#0F8B8D;fontColor=#143642;" parent="1" vertex="1">
            <mxGeometry x="700" y="1290" width="93" height="40" as="geometry" />
          </mxCell>
        </UserObject>
        <mxCell id="6e-DpXRyT5qqWeavbAGu-47" style="rounded=0;labelBackgroundColor=none;fillColor=#FAE5C7;strokeColor=#0F8B8D;fontColor=#143642;" parent="1" vertex="1">
          <mxGeometry x="940" y="1200" as="geometry" />
        </mxCell>
        <UserObject label="" tags="Background" id="6e-DpXRyT5qqWeavbAGu-48">
          <mxCell style="vsdxID=67;edgeStyle=none;startArrow=none;endArrow=none;startSize=5;endSize=5;spacingTop=0;spacingBottom=0;spacingLeft=0;spacingRight=0;verticalAlign=middle;html=1;labelBackgroundColor=none;rounded=0;entryX=1;entryY=0.5;entryDx=0;entryDy=0;entryPerimeter=0;fontColor=default;strokeColor=#A8201A;" parent="1" target="6e-DpXRyT5qqWeavbAGu-4" edge="1">
            <mxGeometry relative="1" as="geometry">
              <mxPoint x="30" y="176" as="offset" />
              <Array as="points" />
              <mxPoint x="950" y="1010" as="sourcePoint" />
            </mxGeometry>
          </mxCell>
        </UserObject>
        <mxCell id="6e-DpXRyT5qqWeavbAGu-49" style="rounded=0;labelBackgroundColor=none;fillColor=#FAE5C7;strokeColor=#0F8B8D;fontColor=#143642;" parent="1" vertex="1">
          <mxGeometry x="940" y="1200" as="geometry" />
        </mxCell>
        <UserObject label="" tags="Background" id="6e-DpXRyT5qqWeavbAGu-50">
          <mxCell style="vsdxID=69;edgeStyle=none;startArrow=none;endArrow=none;startSize=5;endSize=5;spacingTop=0;spacingBottom=0;spacingLeft=0;spacingRight=0;verticalAlign=middle;html=1;labelBackgroundColor=none;rounded=0;exitX=1;exitY=0.5;exitDx=0;exitDy=0;exitPerimeter=0;fontColor=default;strokeColor=#A8201A;" parent="1" source="6e-DpXRyT5qqWeavbAGu-5" edge="1">
            <mxGeometry relative="1" as="geometry">
              <mxPoint x="-35" y="151" as="offset" />
              <Array as="points" />
              <mxPoint x="950" y="1070" as="targetPoint" />
            </mxGeometry>
          </mxCell>
        </UserObject>
        <mxCell id="6e-DpXRyT5qqWeavbAGu-51" style="rounded=0;labelBackgroundColor=none;fillColor=#FAE5C7;strokeColor=#0F8B8D;fontColor=#143642;" parent="1" vertex="1">
          <mxGeometry x="940" y="1200" as="geometry" />
        </mxCell>
        <UserObject label="" tags="Background" id="6e-DpXRyT5qqWeavbAGu-52">
          <mxCell style="vsdxID=71;edgeStyle=none;startArrow=none;endArrow=none;startSize=5;endSize=5;spacingTop=0;spacingBottom=0;spacingLeft=0;spacingRight=0;verticalAlign=middle;html=1;labelBackgroundColor=none;rounded=0;exitX=0.01;exitY=0.5;exitDx=0;exitDy=0;exitPerimeter=0;fontColor=default;strokeColor=#A8201A;" parent="1" source="6e-DpXRyT5qqWeavbAGu-7" edge="1">
            <mxGeometry relative="1" as="geometry">
              <mxPoint x="-40" y="106" as="offset" />
              <Array as="points" />
              <mxPoint x="950" y="1070" as="targetPoint" />
            </mxGeometry>
          </mxCell>
        </UserObject>
        <mxCell id="6e-DpXRyT5qqWeavbAGu-55" style="rounded=0;labelBackgroundColor=none;fillColor=#FAE5C7;strokeColor=#0F8B8D;fontColor=#143642;" parent="1" vertex="1">
          <mxGeometry x="980" y="1180" as="geometry" />
        </mxCell>
        <UserObject label="" tags="Background" id="6e-DpXRyT5qqWeavbAGu-56">
          <mxCell style="vsdxID=75;edgeStyle=none;startArrow=none;endArrow=none;startSize=5;endSize=5;spacingTop=0;spacingBottom=0;spacingLeft=0;spacingRight=0;verticalAlign=middle;html=1;labelBackgroundColor=none;rounded=0;entryX=1.03;entryY=0.575;entryDx=0;entryDy=0;entryPerimeter=0;exitX=0.12;exitY=-0.05;exitDx=0;exitDy=0;exitPerimeter=0;fontColor=default;strokeColor=#A8201A;" parent="1" source="6e-DpXRyT5qqWeavbAGu-1" target="6e-DpXRyT5qqWeavbAGu-3" edge="1">
            <mxGeometry relative="1" as="geometry">
              <mxPoint x="9" y="146" as="offset" />
              <Array as="points">
                <mxPoint x="952" y="943" />
              </Array>
            </mxGeometry>
          </mxCell>
        </UserObject>
        <mxCell id="6e-DpXRyT5qqWeavbAGu-57" style="rounded=0;labelBackgroundColor=none;fillColor=#FAE5C7;strokeColor=#0F8B8D;fontColor=#143642;" parent="1" vertex="1">
          <mxGeometry x="990" y="1180" as="geometry" />
        </mxCell>
        <mxCell id="6e-DpXRyT5qqWeavbAGu-60" style="rounded=0;labelBackgroundColor=none;fillColor=#FAE5C7;strokeColor=#0F8B8D;fontColor=#143642;" parent="1" vertex="1">
          <mxGeometry x="990" y="1460" as="geometry" />
        </mxCell>
        <mxCell id="6e-DpXRyT5qqWeavbAGu-61" style="rounded=0;labelBackgroundColor=none;fillColor=#FAE5C7;strokeColor=#0F8B8D;fontColor=#143642;" parent="1" vertex="1">
          <mxGeometry x="890" y="1590" as="geometry" />
        </mxCell>
        <mxCell id="6e-DpXRyT5qqWeavbAGu-63" style="rounded=0;labelBackgroundColor=none;fillColor=#FAE5C7;strokeColor=#0F8B8D;fontColor=#143642;" parent="1" vertex="1">
          <mxGeometry x="890" y="1520" as="geometry" />
        </mxCell>
        <mxCell id="6e-DpXRyT5qqWeavbAGu-64" style="rounded=0;labelBackgroundColor=none;fillColor=#FAE5C7;strokeColor=#0F8B8D;fontColor=#143642;" parent="1" vertex="1">
          <mxGeometry x="1040" y="1200" as="geometry" />
        </mxCell>
        <mxCell id="6e-DpXRyT5qqWeavbAGu-65" style="rounded=0;labelBackgroundColor=none;fillColor=#FAE5C7;strokeColor=#0F8B8D;fontColor=#143642;" parent="1" vertex="1">
          <mxGeometry x="940" y="1200" as="geometry" />
        </mxCell>
        <UserObject label="" tags="Background" id="6e-DpXRyT5qqWeavbAGu-66">
          <mxCell style="vsdxID=89;edgeStyle=none;startArrow=none;endArrow=none;startSize=5;endSize=5;spacingTop=0;spacingBottom=0;spacingLeft=0;spacingRight=0;verticalAlign=middle;html=1;labelBackgroundColor=none;rounded=0;exitX=0.01;exitY=0.525;exitDx=0;exitDy=0;exitPerimeter=0;fontColor=default;strokeColor=#A8201A;" parent="1" source="6e-DpXRyT5qqWeavbAGu-6" edge="1">
            <mxGeometry relative="1" as="geometry">
              <mxPoint x="-35" y="121" as="offset" />
              <Array as="points" />
              <mxPoint x="950" y="1010" as="targetPoint" />
            </mxGeometry>
          </mxCell>
        </UserObject>
        <mxCell id="6e-DpXRyT5qqWeavbAGu-67" style="rounded=0;labelBackgroundColor=none;fillColor=#FAE5C7;strokeColor=#0F8B8D;fontColor=#143642;" parent="1" vertex="1">
          <mxGeometry x="1310" y="950" as="geometry" />
        </mxCell>
        <mxCell id="6e-DpXRyT5qqWeavbAGu-69" style="rounded=0;labelBackgroundColor=none;fillColor=#FAE5C7;strokeColor=#0F8B8D;fontColor=#143642;" parent="1" vertex="1">
          <mxGeometry x="1310" y="950" as="geometry" />
        </mxCell>
        <mxCell id="6e-DpXRyT5qqWeavbAGu-72" style="rounded=0;labelBackgroundColor=none;fillColor=#FAE5C7;strokeColor=#0F8B8D;fontColor=#143642;" parent="1" vertex="1">
          <mxGeometry x="1360" y="970" as="geometry" />
        </mxCell>
        <mxCell id="6e-DpXRyT5qqWeavbAGu-107" value="" style="edgeStyle=entityRelationEdgeStyle;fontSize=12;html=1;endArrow=ERone;endFill=1;rounded=0;exitX=0.992;exitY=0.517;exitDx=0;exitDy=0;exitPerimeter=0;entryX=0;entryY=0.25;entryDx=0;entryDy=0;labelBackgroundColor=none;fontColor=default;strokeColor=#A8201A;" parent="1" source="6e-DpXRyT5qqWeavbAGu-15" target="6e-DpXRyT5qqWeavbAGu-169" edge="1">
          <mxGeometry width="100" height="100" relative="1" as="geometry">
            <mxPoint x="1360" y="1190" as="sourcePoint" />
            <mxPoint x="1557" y="1160" as="targetPoint" />
          </mxGeometry>
        </mxCell>
        <UserObject label="" tags="Background" id="6e-DpXRyT5qqWeavbAGu-108">
          <mxCell style="vsdxID=147;edgeStyle=none;startArrow=none;endArrow=none;startSize=5;endSize=5;spacingTop=0;spacingBottom=0;spacingLeft=0;spacingRight=0;verticalAlign=middle;html=1;labelBackgroundColor=none;rounded=0;exitX=0.017;exitY=0.533;exitDx=0;exitDy=0;exitPerimeter=0;entryX=1;entryY=0.4;entryDx=0;entryDy=0;entryPerimeter=0;fontColor=default;strokeColor=#A8201A;" parent="1" source="6e-DpXRyT5qqWeavbAGu-15" target="6e-DpXRyT5qqWeavbAGu-1" edge="1">
            <mxGeometry relative="1" as="geometry">
              <mxPoint x="-23" y="176" as="offset" />
              <Array as="points" />
              <mxPoint x="1041" y="1368" as="sourcePoint" />
              <mxPoint x="1041" y="1192" as="targetPoint" />
            </mxGeometry>
          </mxCell>
        </UserObject>
        <mxCell id="6e-DpXRyT5qqWeavbAGu-171" style="edgeStyle=orthogonalEdgeStyle;rounded=0;orthogonalLoop=1;jettySize=auto;html=1;entryX=0;entryY=0.75;entryDx=0;entryDy=0;endArrow=none;endFill=0;exitX=1;exitY=0.5;exitDx=0;exitDy=0;labelBackgroundColor=none;fontColor=default;strokeColor=#A8201A;" parent="1" source="6e-DpXRyT5qqWeavbAGu-173" target="6e-DpXRyT5qqWeavbAGu-169" edge="1">
          <mxGeometry relative="1" as="geometry">
            <mxPoint x="1548" y="1182" as="targetPoint" />
            <mxPoint x="1533" y="1197" as="sourcePoint" />
          </mxGeometry>
        </mxCell>
        <mxCell id="6e-DpXRyT5qqWeavbAGu-155" style="edgeStyle=orthogonalEdgeStyle;rounded=0;orthogonalLoop=1;jettySize=auto;html=1;endArrow=none;endFill=0;labelBackgroundColor=none;fontColor=default;strokeColor=#A8201A;" parent="1" source="6e-DpXRyT5qqWeavbAGu-147" edge="1">
          <mxGeometry relative="1" as="geometry">
            <mxPoint x="992" y="1210" as="targetPoint" />
            <Array as="points">
              <mxPoint x="989" y="1360" />
              <mxPoint x="989" y="1210" />
            </Array>
          </mxGeometry>
        </mxCell>
        <UserObject label="&lt;div style=&quot;&quot;&gt;&lt;font style=&quot;font-family: Helvetica; color: rgb(0, 0, 0); direction: ltr; letter-spacing: 0px; line-height: 120%; opacity: 1; font-size: 11.29px;&quot;&gt;UserName&lt;/font&gt;&lt;/div&gt;" tags="Background" id="6e-DpXRyT5qqWeavbAGu-147">
          <mxCell style="verticalAlign=middle;align=center;overflow=width;vsdxID=59;shape=stencil(jZLdDoIwDIWfZrdka6PEa8T3MDJkERkZoOPtZekIG/h313an/XaaMsy66txKBrzrjb7Jpyr6iuGRAaimkkb1U8QwZ5iV2sir0UNTUN6endJFd/1wEyz1cdcBfKRsR+mJlJfBkFTEWp+mabIXVLJAJYAED17lS4L7NosRg48YCz5AA8oMXkauGTM0/BquNfiP10UuNtbsljKDf3j9igyXF2/cxtPH7bYtxoq3HqdgOYNS1TVdUfi+PpupRCeH+Qs=);spacingTop=-3;spacingBottom=-3;spacingLeft=-3;spacingRight=-3;points=[];labelBackgroundColor=none;rounded=0;html=1;whiteSpace=wrap;fillColor=#FAE5C7;strokeColor=#0F8B8D;fontColor=#143642;" parent="1" vertex="1">
            <mxGeometry x="697" y="1344" width="93" height="40" as="geometry" />
          </mxCell>
        </UserObject>
        <mxCell id="6e-DpXRyT5qqWeavbAGu-157" style="edgeStyle=orthogonalEdgeStyle;rounded=0;orthogonalLoop=1;jettySize=auto;html=1;endArrow=none;endFill=0;labelBackgroundColor=none;fontColor=default;strokeColor=#A8201A;" parent="1" source="6e-DpXRyT5qqWeavbAGu-148" edge="1">
          <mxGeometry relative="1" as="geometry">
            <mxPoint x="993" y="1424" as="targetPoint" />
            <Array as="points">
              <mxPoint x="988" y="1485" />
              <mxPoint x="988" y="1424" />
            </Array>
          </mxGeometry>
        </mxCell>
        <UserObject label="&lt;div style=&quot;font-size: 1px&quot;&gt;&lt;font style=&quot;font-size:11.29px;font-family:Helvetica;color:#000000;direction:ltr;letter-spacing:0px;line-height:120%;opacity:1&quot;&gt;ImgUsuario&lt;/font&gt;&lt;font style=&quot;font-size:0.97px;font-family:Helvetica;color:#000000;direction:ltr;letter-spacing:0px;line-height:120%;opacity:1&quot;&gt;&lt;br&gt;&lt;/font&gt;&lt;/div&gt;" tags="Background" id="6e-DpXRyT5qqWeavbAGu-148">
          <mxCell style="verticalAlign=middle;align=center;overflow=width;vsdxID=59;shape=stencil(jZLdDoIwDIWfZrdka6PEa8T3MDJkERkZoOPtZekIG/h313an/XaaMsy66txKBrzrjb7Jpyr6iuGRAaimkkb1U8QwZ5iV2sir0UNTUN6endJFd/1wEyz1cdcBfKRsR+mJlJfBkFTEWp+mabIXVLJAJYAED17lS4L7NosRg48YCz5AA8oMXkauGTM0/BquNfiP10UuNtbsljKDf3j9igyXF2/cxtPH7bYtxoq3HqdgOYNS1TVdUfi+PpupRCeH+Qs=);spacingTop=-3;spacingBottom=-3;spacingLeft=-3;spacingRight=-3;points=[];labelBackgroundColor=none;rounded=0;html=1;whiteSpace=wrap;fillColor=#FAE5C7;strokeColor=#0F8B8D;fontColor=#143642;" parent="1" vertex="1">
            <mxGeometry x="700" y="1465" width="93" height="40" as="geometry" />
          </mxCell>
        </UserObject>
        <mxCell id="6e-DpXRyT5qqWeavbAGu-159" style="edgeStyle=orthogonalEdgeStyle;rounded=0;orthogonalLoop=1;jettySize=auto;html=1;startArrow=none;startFill=0;endArrow=none;endFill=0;labelBackgroundColor=none;fontColor=default;strokeColor=#A8201A;" parent="1" source="6e-DpXRyT5qqWeavbAGu-149" edge="1">
          <mxGeometry relative="1" as="geometry">
            <mxPoint x="989" y="1547" as="targetPoint" />
          </mxGeometry>
        </mxCell>
        <UserObject label="&lt;div style=&quot;&quot;&gt;&lt;font style=&quot;font-family: Helvetica; color: rgb(0, 0, 0); direction: ltr; letter-spacing: 0px; line-height: 120%; opacity: 1; font-size: 11.29px;&quot;&gt;EstatusUser&lt;/font&gt;&lt;/div&gt;" tags="Background" id="6e-DpXRyT5qqWeavbAGu-149">
          <mxCell style="verticalAlign=middle;align=center;overflow=width;vsdxID=59;shape=stencil(jZLdDoIwDIWfZrdka6PEa8T3MDJkERkZoOPtZekIG/h313an/XaaMsy66txKBrzrjb7Jpyr6iuGRAaimkkb1U8QwZ5iV2sir0UNTUN6endJFd/1wEyz1cdcBfKRsR+mJlJfBkFTEWp+mabIXVLJAJYAED17lS4L7NosRg48YCz5AA8oMXkauGTM0/BquNfiP10UuNtbsljKDf3j9igyXF2/cxtPH7bYtxoq3HqdgOYNS1TVdUfi+PpupRCeH+Qs=);spacingTop=-3;spacingBottom=-3;spacingLeft=-3;spacingRight=-3;points=[];labelBackgroundColor=none;rounded=0;html=1;whiteSpace=wrap;fillColor=#FAE5C7;strokeColor=#0F8B8D;fontColor=#143642;" parent="1" vertex="1">
            <mxGeometry x="700" y="1590" width="93" height="40" as="geometry" />
          </mxCell>
        </UserObject>
        <mxCell id="6e-DpXRyT5qqWeavbAGu-156" style="edgeStyle=orthogonalEdgeStyle;rounded=0;orthogonalLoop=1;jettySize=auto;html=1;endArrow=none;endFill=0;labelBackgroundColor=none;fontColor=default;strokeColor=#A8201A;" parent="1" source="6e-DpXRyT5qqWeavbAGu-150" edge="1">
          <mxGeometry relative="1" as="geometry">
            <mxPoint x="989" y="1298" as="targetPoint" />
          </mxGeometry>
        </mxCell>
        <UserObject label="&lt;div style=&quot;&quot;&gt;&lt;font style=&quot;font-family: Helvetica; color: rgb(0, 0, 0); direction: ltr; letter-spacing: 0px; line-height: 120%; opacity: 1; font-size: 11.29px;&quot;&gt;Password&lt;/font&gt;&lt;/div&gt;" tags="Background" id="6e-DpXRyT5qqWeavbAGu-150">
          <mxCell style="verticalAlign=middle;align=center;overflow=width;vsdxID=59;shape=stencil(jZLdDoIwDIWfZrdka6PEa8T3MDJkERkZoOPtZekIG/h313an/XaaMsy66txKBrzrjb7Jpyr6iuGRAaimkkb1U8QwZ5iV2sir0UNTUN6endJFd/1wEyz1cdcBfKRsR+mJlJfBkFTEWp+mabIXVLJAJYAED17lS4L7NosRg48YCz5AA8oMXkauGTM0/BquNfiP10UuNtbsljKDf3j9igyXF2/cxtPH7bYtxoq3HqdgOYNS1TVdUfi+PpupRCeH+Qs=);spacingTop=-3;spacingBottom=-3;spacingLeft=-3;spacingRight=-3;points=[];labelBackgroundColor=none;rounded=0;html=1;whiteSpace=wrap;fillColor=#FAE5C7;strokeColor=#0F8B8D;fontColor=#143642;" parent="1" vertex="1">
            <mxGeometry x="697" y="1408" width="93" height="40" as="geometry" />
          </mxCell>
        </UserObject>
        <mxCell id="6e-DpXRyT5qqWeavbAGu-158" style="edgeStyle=orthogonalEdgeStyle;rounded=0;orthogonalLoop=1;jettySize=auto;html=1;endArrow=none;endFill=0;labelBackgroundColor=none;fontColor=default;strokeColor=#A8201A;" parent="1" source="6e-DpXRyT5qqWeavbAGu-152" edge="1">
          <mxGeometry relative="1" as="geometry">
            <mxPoint x="988" y="1458" as="targetPoint" />
            <Array as="points">
              <mxPoint x="988" y="1552" />
              <mxPoint x="988" y="1490" />
            </Array>
          </mxGeometry>
        </mxCell>
        <UserObject label="&lt;div style=&quot;&quot;&gt;&lt;font style=&quot;font-family: Helvetica; color: rgb(0, 0, 0); direction: ltr; letter-spacing: 0px; line-height: 120%; opacity: 1; font-size: 11.29px;&quot;&gt;Online&amp;nbsp;&lt;/font&gt;&lt;/div&gt;" tags="Background" id="6e-DpXRyT5qqWeavbAGu-152">
          <mxCell style="verticalAlign=middle;align=center;overflow=width;vsdxID=59;shape=stencil(jZLdDoIwDIWfZrdka6PEa8T3MDJkERkZoOPtZekIG/h313an/XaaMsy66txKBrzrjb7Jpyr6iuGRAaimkkb1U8QwZ5iV2sir0UNTUN6endJFd/1wEyz1cdcBfKRsR+mJlJfBkFTEWp+mabIXVLJAJYAED17lS4L7NosRg48YCz5AA8oMXkauGTM0/BquNfiP10UuNtbsljKDf3j9igyXF2/cxtPH7bYtxoq3HqdgOYNS1TVdUfi+PpupRCeH+Qs=);spacingTop=-3;spacingBottom=-3;spacingLeft=-3;spacingRight=-3;points=[];labelBackgroundColor=none;rounded=0;html=1;whiteSpace=wrap;fillColor=#FAE5C7;strokeColor=#0F8B8D;fontColor=#143642;" parent="1" vertex="1">
            <mxGeometry x="700" y="1532" width="93" height="40" as="geometry" />
          </mxCell>
        </UserObject>
        <mxCell id="6e-DpXRyT5qqWeavbAGu-185" style="edgeStyle=orthogonalEdgeStyle;rounded=0;orthogonalLoop=1;jettySize=auto;html=1;endArrow=none;endFill=0;labelBackgroundColor=none;fontColor=default;strokeColor=#A8201A;" parent="1" source="6e-DpXRyT5qqWeavbAGu-161" target="6e-DpXRyT5qqWeavbAGu-11" edge="1">
          <mxGeometry relative="1" as="geometry">
            <mxPoint x="1063" y="1783" as="targetPoint" />
          </mxGeometry>
        </mxCell>
        <UserObject label="&lt;div style=&quot;&quot;&gt;&lt;span style=&quot;font-size: 11.29px;&quot;&gt;NTUsuario&lt;/span&gt;&lt;/div&gt;" tags="Background" id="6e-DpXRyT5qqWeavbAGu-161">
          <mxCell style="verticalAlign=middle;align=center;overflow=width;vsdxID=59;shape=stencil(jZLdDoIwDIWfZrdka6PEa8T3MDJkERkZoOPtZekIG/h313an/XaaMsy66txKBrzrjb7Jpyr6iuGRAaimkkb1U8QwZ5iV2sir0UNTUN6endJFd/1wEyz1cdcBfKRsR+mJlJfBkFTEWp+mabIXVLJAJYAED17lS4L7NosRg48YCz5AA8oMXkauGTM0/BquNfiP10UuNtbsljKDf3j9igyXF2/cxtPH7bYtxoq3HqdgOYNS1TVdUfi+PpupRCeH+Qs=);spacingTop=-3;spacingBottom=-3;spacingLeft=-3;spacingRight=-3;points=[];labelBackgroundColor=none;rounded=0;html=1;whiteSpace=wrap;fillColor=#FAE5C7;strokeColor=#0F8B8D;fontColor=#143642;" parent="1" vertex="1">
            <mxGeometry x="907" y="1806" width="97" height="40" as="geometry" />
          </mxCell>
        </UserObject>
        <mxCell id="6e-DpXRyT5qqWeavbAGu-186" style="edgeStyle=orthogonalEdgeStyle;rounded=0;orthogonalLoop=1;jettySize=auto;html=1;endArrow=none;endFill=0;entryX=0.561;entryY=-0.041;entryDx=0;entryDy=0;entryPerimeter=0;labelBackgroundColor=none;fontColor=default;strokeColor=#A8201A;" parent="1" source="6e-DpXRyT5qqWeavbAGu-165" target="6e-DpXRyT5qqWeavbAGu-11" edge="1">
          <mxGeometry relative="1" as="geometry">
            <mxPoint x="1110" y="1782" as="targetPoint" />
          </mxGeometry>
        </mxCell>
        <UserObject label="&lt;span style=&quot;font-size: 11.29px;&quot;&gt;DescripcionT&lt;/span&gt;" tags="Background" id="6e-DpXRyT5qqWeavbAGu-165">
          <mxCell style="verticalAlign=middle;align=center;overflow=width;vsdxID=59;shape=stencil(jZLdDoIwDIWfZrdka6PEa8T3MDJkERkZoOPtZekIG/h313an/XaaMsy66txKBrzrjb7Jpyr6iuGRAaimkkb1U8QwZ5iV2sir0UNTUN6endJFd/1wEyz1cdcBfKRsR+mJlJfBkFTEWp+mabIXVLJAJYAED17lS4L7NosRg48YCz5AA8oMXkauGTM0/BquNfiP10UuNtbsljKDf3j9igyXF2/cxtPH7bYtxoq3HqdgOYNS1TVdUfi+PpupRCeH+Qs=);spacingTop=-3;spacingBottom=-3;spacingLeft=-3;spacingRight=-3;points=[];labelBackgroundColor=none;rounded=0;html=1;whiteSpace=wrap;fillColor=#FAE5C7;strokeColor=#0F8B8D;fontColor=#143642;" parent="1" vertex="1">
            <mxGeometry x="1044" y="1554" width="93" height="40" as="geometry" />
          </mxCell>
        </UserObject>
        <mxCell id="6e-DpXRyT5qqWeavbAGu-180" style="edgeStyle=orthogonalEdgeStyle;rounded=0;orthogonalLoop=1;jettySize=auto;html=1;endArrow=none;endFill=0;labelBackgroundColor=none;fontColor=default;strokeColor=#A8201A;" parent="1" source="6e-DpXRyT5qqWeavbAGu-169" target="6e-DpXRyT5qqWeavbAGu-178" edge="1">
          <mxGeometry relative="1" as="geometry">
            <Array as="points">
              <mxPoint x="1615" y="1095" />
              <mxPoint x="1588" y="1095" />
            </Array>
          </mxGeometry>
        </mxCell>
        <mxCell id="6e-DpXRyT5qqWeavbAGu-182" style="edgeStyle=orthogonalEdgeStyle;rounded=0;orthogonalLoop=1;jettySize=auto;html=1;exitX=0.75;exitY=0;exitDx=0;exitDy=0;entryX=0;entryY=0.5;entryDx=0;entryDy=0;endArrow=none;endFill=0;labelBackgroundColor=none;fontColor=default;strokeColor=#A8201A;" parent="1" source="6e-DpXRyT5qqWeavbAGu-169" target="6e-DpXRyT5qqWeavbAGu-175" edge="1">
          <mxGeometry relative="1" as="geometry" />
        </mxCell>
        <mxCell id="6e-DpXRyT5qqWeavbAGu-183" style="edgeStyle=orthogonalEdgeStyle;rounded=0;orthogonalLoop=1;jettySize=auto;html=1;endArrow=none;endFill=0;labelBackgroundColor=none;fontColor=default;strokeColor=#A8201A;exitX=0.75;exitY=0;exitDx=0;exitDy=0;" parent="1" source="6e-DpXRyT5qqWeavbAGu-169" target="6e-DpXRyT5qqWeavbAGu-174" edge="1">
          <mxGeometry relative="1" as="geometry">
            <mxPoint x="1702" y="1139.5" as="targetPoint" />
            <mxPoint x="1646" y="1114" as="sourcePoint" />
            <Array as="points">
              <mxPoint x="1646" y="1124" />
              <mxPoint x="1666" y="1124" />
            </Array>
          </mxGeometry>
        </mxCell>
        <mxCell id="m5P5q0p0tQF4HmMwArrf-102" style="edgeStyle=orthogonalEdgeStyle;rounded=0;orthogonalLoop=1;jettySize=auto;html=1;strokeColor=#A8201A;fontColor=#143642;fillColor=#FAE5C7;entryX=0.004;entryY=0.505;entryDx=0;entryDy=0;entryPerimeter=0;exitX=1;exitY=0.75;exitDx=0;exitDy=0;endArrow=none;endFill=0;" edge="1" parent="1" source="6e-DpXRyT5qqWeavbAGu-169" target="6e-DpXRyT5qqWeavbAGu-10">
          <mxGeometry relative="1" as="geometry">
            <mxPoint x="1807.1428571428573" y="1139.5" as="targetPoint" />
          </mxGeometry>
        </mxCell>
        <mxCell id="m5P5q0p0tQF4HmMwArrf-199" style="edgeStyle=orthogonalEdgeStyle;rounded=0;orthogonalLoop=1;jettySize=auto;html=1;exitX=1;exitY=0.25;exitDx=0;exitDy=0;strokeColor=#A8201A;fontColor=#143642;fillColor=#FAE5C7;" edge="1" parent="1" source="6e-DpXRyT5qqWeavbAGu-169" target="m5P5q0p0tQF4HmMwArrf-198">
          <mxGeometry relative="1" as="geometry" />
        </mxCell>
        <mxCell id="6e-DpXRyT5qqWeavbAGu-169" value="Plantel" style="whiteSpace=wrap;html=1;align=center;rounded=0;labelBackgroundColor=none;fillColor=#FAE5C7;strokeColor=#0F8B8D;fontColor=#143642;" parent="1" vertex="1">
          <mxGeometry x="1571" y="1119" width="100" height="41" as="geometry" />
        </mxCell>
        <mxCell id="6e-DpXRyT5qqWeavbAGu-173" value="Id_Plantel" style="ellipse;whiteSpace=wrap;html=1;align=center;fontStyle=4;rounded=0;labelBackgroundColor=none;fillColor=#FAE5C7;strokeColor=#0F8B8D;fontColor=#143642;" parent="1" vertex="1">
          <mxGeometry x="1424" y="1221" width="100" height="40" as="geometry" />
        </mxCell>
        <mxCell id="6e-DpXRyT5qqWeavbAGu-174" value="Id_Municipio" style="ellipse;whiteSpace=wrap;html=1;align=center;rounded=0;labelBackgroundColor=none;fillColor=#FAE5C7;strokeColor=#0F8B8D;fontColor=#143642;" parent="1" vertex="1">
          <mxGeometry x="1648" y="937" width="100" height="40" as="geometry" />
        </mxCell>
        <mxCell id="6e-DpXRyT5qqWeavbAGu-175" value="TelefonoPlantel" style="ellipse;whiteSpace=wrap;html=1;align=center;rounded=0;labelBackgroundColor=none;fillColor=#FAE5C7;strokeColor=#0F8B8D;fontColor=#143642;" parent="1" vertex="1">
          <mxGeometry x="1664.5" y="888" width="100" height="40" as="geometry" />
        </mxCell>
        <mxCell id="6e-DpXRyT5qqWeavbAGu-202" style="edgeStyle=orthogonalEdgeStyle;rounded=0;orthogonalLoop=1;jettySize=auto;html=1;entryX=0.12;entryY=0.024;entryDx=0;entryDy=0;entryPerimeter=0;endArrow=none;endFill=0;labelBackgroundColor=none;fontColor=default;strokeColor=#A8201A;" parent="1" source="6e-DpXRyT5qqWeavbAGu-176" target="6e-DpXRyT5qqWeavbAGu-169" edge="1">
          <mxGeometry relative="1" as="geometry" />
        </mxCell>
        <mxCell id="6e-DpXRyT5qqWeavbAGu-176" value="NombrePlantel" style="ellipse;whiteSpace=wrap;html=1;align=center;rounded=0;labelBackgroundColor=none;fillColor=#FAE5C7;strokeColor=#0F8B8D;fontColor=#143642;" parent="1" vertex="1">
          <mxGeometry x="1406" y="1064" width="100" height="40" as="geometry" />
        </mxCell>
        <mxCell id="6e-DpXRyT5qqWeavbAGu-177" value="EmailPlantel" style="ellipse;whiteSpace=wrap;html=1;align=center;rounded=0;labelBackgroundColor=none;fillColor=#FAE5C7;strokeColor=#0F8B8D;fontColor=#143642;" parent="1" vertex="1">
          <mxGeometry x="1528" y="943" width="100" height="40" as="geometry" />
        </mxCell>
        <mxCell id="6e-DpXRyT5qqWeavbAGu-181" style="edgeStyle=orthogonalEdgeStyle;rounded=0;orthogonalLoop=1;jettySize=auto;html=1;endArrow=none;endFill=0;labelBackgroundColor=none;fontColor=default;strokeColor=#A8201A;" parent="1" source="6e-DpXRyT5qqWeavbAGu-178" edge="1">
          <mxGeometry relative="1" as="geometry">
            <mxPoint x="1588" y="984" as="targetPoint" />
          </mxGeometry>
        </mxCell>
        <mxCell id="6e-DpXRyT5qqWeavbAGu-178" value="DireccionPlantel" style="ellipse;whiteSpace=wrap;html=1;align=center;rounded=0;labelBackgroundColor=none;fillColor=#FAE5C7;strokeColor=#0F8B8D;fontColor=#143642;" parent="1" vertex="1">
          <mxGeometry x="1538" y="1030" width="100" height="40" as="geometry" />
        </mxCell>
        <mxCell id="6e-DpXRyT5qqWeavbAGu-179" style="edgeStyle=orthogonalEdgeStyle;rounded=0;orthogonalLoop=1;jettySize=auto;html=1;exitX=0.5;exitY=1;exitDx=0;exitDy=0;labelBackgroundColor=none;fontColor=default;strokeColor=#A8201A;" parent="1" source="6e-DpXRyT5qqWeavbAGu-174" target="6e-DpXRyT5qqWeavbAGu-174" edge="1">
          <mxGeometry relative="1" as="geometry" />
        </mxCell>
        <mxCell id="6e-DpXRyT5qqWeavbAGu-188" value="" style="edgeStyle=entityRelationEdgeStyle;fontSize=12;html=1;endArrow=ERone;endFill=1;rounded=0;exitX=0.996;exitY=0.5;exitDx=0;exitDy=0;exitPerimeter=0;labelBackgroundColor=none;fontColor=default;strokeColor=#A8201A;" parent="1" source="6e-DpXRyT5qqWeavbAGu-189" target="6e-DpXRyT5qqWeavbAGu-11" edge="1">
          <mxGeometry width="100" height="100" relative="1" as="geometry">
            <mxPoint x="1205" y="1436" as="sourcePoint" />
            <mxPoint x="1227" y="1578" as="targetPoint" />
          </mxGeometry>
        </mxCell>
        <mxCell id="6e-DpXRyT5qqWeavbAGu-190" style="edgeStyle=orthogonalEdgeStyle;rounded=0;orthogonalLoop=1;jettySize=auto;html=1;entryX=0.63;entryY=1.05;entryDx=0;entryDy=0;entryPerimeter=0;endArrow=none;endFill=0;labelBackgroundColor=none;fontColor=default;strokeColor=#A8201A;" parent="1" source="6e-DpXRyT5qqWeavbAGu-189" target="6e-DpXRyT5qqWeavbAGu-1" edge="1">
          <mxGeometry relative="1" as="geometry" />
        </mxCell>
        <UserObject label="&lt;div style=&quot;font-size: 1px&quot;&gt;&lt;font style=&quot;font-size:11.29px;font-family:Helvetica;color:#000000;direction:ltr;letter-spacing:0px;line-height:120%;opacity:1&quot;&gt;Tiene&lt;/font&gt;&lt;font style=&quot;font-size:0.97px;font-family:Helvetica;color:#000000;direction:ltr;letter-spacing:0px;line-height:120%;opacity:1&quot;&gt;&lt;br/&gt;&lt;/font&gt;&lt;/div&gt;" tags="Background" id="6e-DpXRyT5qqWeavbAGu-189">
          <mxCell style="verticalAlign=middle;align=center;overflow=width;vsdxID=34;shape=stencil(nZBLDoQgEERP03uk4wnUuYeJKB0RDDKj3l5Ix/iJcTG7KnhVSRdgMel6VCDFFLzr1UxN0IAlSElWK08hKsAKsGidV513X9uwH+tEJjW4X2pYOJeLFJFiZcvuw6QheyIzcUXzF/bWukcf2b9bL2QUx4ktGcMLnf/vk8QnnhOrDQ==);spacingTop=-3;spacingBottom=-3;spacingLeft=-3;spacingRight=-3;points=[];labelBackgroundColor=none;rounded=0;html=1;whiteSpace=wrap;fillColor=#FAE5C7;strokeColor=#0F8B8D;fontColor=#143642;" parent="1" vertex="1">
            <mxGeometry x="1036.5" y="1402" width="120" height="60" as="geometry" />
          </mxCell>
        </UserObject>
        <mxCell id="6e-DpXRyT5qqWeavbAGu-206" style="edgeStyle=orthogonalEdgeStyle;rounded=0;orthogonalLoop=1;jettySize=auto;html=1;entryX=0.53;entryY=0;entryDx=0;entryDy=0;entryPerimeter=0;endArrow=none;endFill=0;labelBackgroundColor=none;fontColor=default;strokeColor=#A8201A;" parent="1" source="6e-DpXRyT5qqWeavbAGu-191" target="6e-DpXRyT5qqWeavbAGu-204" edge="1">
          <mxGeometry relative="1" as="geometry" />
        </mxCell>
        <mxCell id="6e-DpXRyT5qqWeavbAGu-212" style="edgeStyle=orthogonalEdgeStyle;rounded=0;orthogonalLoop=1;jettySize=auto;html=1;entryX=0.008;entryY=0.483;entryDx=0;entryDy=0;entryPerimeter=0;labelBackgroundColor=none;fontColor=default;endArrow=none;endFill=0;strokeColor=#A8201A;" parent="1" source="6e-DpXRyT5qqWeavbAGu-191" target="6e-DpXRyT5qqWeavbAGu-197" edge="1">
          <mxGeometry relative="1" as="geometry" />
        </mxCell>
        <mxCell id="6e-DpXRyT5qqWeavbAGu-191" value="municipios" style="whiteSpace=wrap;html=1;align=center;rounded=0;labelBackgroundColor=none;fillColor=#FAE5C7;strokeColor=#0F8B8D;fontColor=#143642;" parent="1" vertex="1">
          <mxGeometry x="1571" y="1390" width="100" height="49" as="geometry" />
        </mxCell>
        <mxCell id="6e-DpXRyT5qqWeavbAGu-201" style="edgeStyle=orthogonalEdgeStyle;rounded=0;orthogonalLoop=1;jettySize=auto;html=1;entryX=0;entryY=0.5;entryDx=0;entryDy=0;endArrow=none;endFill=0;labelBackgroundColor=none;fontColor=default;strokeColor=#A8201A;" parent="1" source="6e-DpXRyT5qqWeavbAGu-192" target="6e-DpXRyT5qqWeavbAGu-191" edge="1">
          <mxGeometry relative="1" as="geometry">
            <Array as="points">
              <mxPoint x="1571" y="1396" />
            </Array>
          </mxGeometry>
        </mxCell>
        <mxCell id="6e-DpXRyT5qqWeavbAGu-192" value="Id_Municipio" style="ellipse;whiteSpace=wrap;html=1;align=center;fontStyle=4;rounded=0;labelBackgroundColor=none;fillColor=#FAE5C7;strokeColor=#0F8B8D;fontColor=#143642;" parent="1" vertex="1">
          <mxGeometry x="1422" y="1376" width="100" height="40" as="geometry" />
        </mxCell>
        <UserObject label="&lt;div style=&quot;font-size: 1px&quot;&gt;&lt;font style=&quot;font-size:11.29px;font-family:Helvetica;color:#000000;direction:ltr;letter-spacing:0px;line-height:120%;opacity:1&quot;&gt;Tiene&lt;/font&gt;&lt;font style=&quot;font-size:0.97px;font-family:Helvetica;color:#000000;direction:ltr;letter-spacing:0px;line-height:120%;opacity:1&quot;&gt;&lt;br/&gt;&lt;/font&gt;&lt;/div&gt;" tags="Background" id="6e-DpXRyT5qqWeavbAGu-195">
          <mxCell style="verticalAlign=middle;align=center;overflow=width;vsdxID=10;shape=stencil(nZBLDoQgEERP03uk4wnUuYeJKB0RDDKj3l5Ix/iJcTG7KnhVSRdgMel6VCDFFLzr1UxN0IAlSElWK08hKsAKsGidV513X9uwH+tEJjW4X2pYOJeLFJFiZcvuw6QheyIzcUXzF/bWukcf2b9bL2QUx4ktGcMLnf/vk8QnnhOrDQ==);spacingTop=-3;spacingBottom=-3;spacingLeft=-3;spacingRight=-3;points=[];labelBackgroundColor=none;rounded=0;html=1;whiteSpace=wrap;fillColor=#FAE5C7;strokeColor=#0F8B8D;fontColor=#143642;" parent="1" vertex="1">
            <mxGeometry x="1528" y="1893" width="120" height="60" as="geometry" />
          </mxCell>
        </UserObject>
        <UserObject label="&lt;div style=&quot;font-size: 1px&quot;&gt;&lt;font style=&quot;font-size:11.29px;font-family:Helvetica;color:#000000;direction:ltr;letter-spacing:0px;line-height:120%;opacity:1&quot;&gt;Tiene&lt;/font&gt;&lt;font style=&quot;font-size:0.97px;font-family:Helvetica;color:#000000;direction:ltr;letter-spacing:0px;line-height:120%;opacity:1&quot;&gt;&lt;br/&gt;&lt;/font&gt;&lt;/div&gt;" tags="Background" id="6e-DpXRyT5qqWeavbAGu-197">
          <mxCell style="verticalAlign=middle;align=center;overflow=width;vsdxID=10;shape=stencil(nZBLDoQgEERP03uk4wnUuYeJKB0RDDKj3l5Ix/iJcTG7KnhVSRdgMel6VCDFFLzr1UxN0IAlSElWK08hKsAKsGidV513X9uwH+tEJjW4X2pYOJeLFJFiZcvuw6QheyIzcUXzF/bWukcf2b9bL2QUx4ktGcMLnf/vk8QnnhOrDQ==);spacingTop=-3;spacingBottom=-3;spacingLeft=-3;spacingRight=-3;points=[];labelBackgroundColor=none;rounded=0;html=1;whiteSpace=wrap;fillColor=#FAE5C7;strokeColor=#0F8B8D;fontColor=#143642;" parent="1" vertex="1">
            <mxGeometry x="1816" y="1470" width="120" height="60" as="geometry" />
          </mxCell>
        </UserObject>
        <mxCell id="6e-DpXRyT5qqWeavbAGu-199" value="" style="edgeStyle=orthogonalEdgeStyle;rounded=0;orthogonalLoop=1;jettySize=auto;html=1;endArrow=none;endFill=0;labelBackgroundColor=none;fontColor=default;strokeColor=#A8201A;" parent="1" source="6e-DpXRyT5qqWeavbAGu-198" target="6e-DpXRyT5qqWeavbAGu-169" edge="1">
          <mxGeometry relative="1" as="geometry" />
        </mxCell>
        <mxCell id="6e-DpXRyT5qqWeavbAGu-200" style="edgeStyle=orthogonalEdgeStyle;rounded=0;orthogonalLoop=1;jettySize=auto;html=1;endArrow=none;endFill=0;labelBackgroundColor=none;fontColor=default;strokeColor=#A8201A;" parent="1" source="6e-DpXRyT5qqWeavbAGu-198" target="6e-DpXRyT5qqWeavbAGu-191" edge="1">
          <mxGeometry relative="1" as="geometry" />
        </mxCell>
        <UserObject label="&lt;div style=&quot;font-size: 1px&quot;&gt;&lt;font style=&quot;font-size:11.29px;font-family:Helvetica;color:#000000;direction:ltr;letter-spacing:0px;line-height:120%;opacity:1&quot;&gt;Tiene&lt;/font&gt;&lt;font style=&quot;font-size:0.97px;font-family:Helvetica;color:#000000;direction:ltr;letter-spacing:0px;line-height:120%;opacity:1&quot;&gt;&lt;br/&gt;&lt;/font&gt;&lt;/div&gt;" tags="Background" id="6e-DpXRyT5qqWeavbAGu-198">
          <mxCell style="verticalAlign=middle;align=center;overflow=width;vsdxID=10;shape=stencil(nZBLDoQgEERP03uk4wnUuYeJKB0RDDKj3l5Ix/iJcTG7KnhVSRdgMel6VCDFFLzr1UxN0IAlSElWK08hKsAKsGidV513X9uwH+tEJjW4X2pYOJeLFJFiZcvuw6QheyIzcUXzF/bWukcf2b9bL2QUx4ktGcMLnf/vk8QnnhOrDQ==);spacingTop=-3;spacingBottom=-3;spacingLeft=-3;spacingRight=-3;points=[];labelBackgroundColor=none;rounded=0;html=1;whiteSpace=wrap;fillColor=#FAE5C7;strokeColor=#0F8B8D;fontColor=#143642;" parent="1" vertex="1">
            <mxGeometry x="1561" y="1240" width="120" height="60" as="geometry" />
          </mxCell>
        </UserObject>
        <mxCell id="6e-DpXRyT5qqWeavbAGu-207" style="edgeStyle=orthogonalEdgeStyle;rounded=0;orthogonalLoop=1;jettySize=auto;html=1;entryX=0.19;entryY=1;entryDx=0;entryDy=0;endArrow=none;endFill=0;entryPerimeter=0;labelBackgroundColor=none;fontColor=default;strokeColor=#A8201A;" parent="1" source="6e-DpXRyT5qqWeavbAGu-203" target="6e-DpXRyT5qqWeavbAGu-191" edge="1">
          <mxGeometry relative="1" as="geometry" />
        </mxCell>
        <mxCell id="6e-DpXRyT5qqWeavbAGu-203" value="NombreMunicipio" style="ellipse;whiteSpace=wrap;html=1;align=center;rounded=0;labelBackgroundColor=none;fillColor=#FAE5C7;strokeColor=#0F8B8D;fontColor=#143642;" parent="1" vertex="1">
          <mxGeometry x="1414" y="1497" width="100" height="40" as="geometry" />
        </mxCell>
        <mxCell id="6e-DpXRyT5qqWeavbAGu-204" value="Id_Estado&amp;nbsp;" style="ellipse;whiteSpace=wrap;html=1;align=center;rounded=0;labelBackgroundColor=none;fillColor=#FAE5C7;strokeColor=#0F8B8D;fontColor=#143642;" parent="1" vertex="1">
          <mxGeometry x="1568" y="1532" width="100" height="40" as="geometry" />
        </mxCell>
        <mxCell id="6e-DpXRyT5qqWeavbAGu-218" style="edgeStyle=orthogonalEdgeStyle;rounded=0;orthogonalLoop=1;jettySize=auto;html=1;endArrow=none;endFill=0;labelBackgroundColor=none;fontColor=default;strokeColor=#A8201A;" parent="1" source="6e-DpXRyT5qqWeavbAGu-210" target="6e-DpXRyT5qqWeavbAGu-217" edge="1">
          <mxGeometry relative="1" as="geometry" />
        </mxCell>
        <mxCell id="6e-DpXRyT5qqWeavbAGu-210" value="estados&amp;nbsp;" style="whiteSpace=wrap;html=1;align=center;labelBackgroundColor=none;fillColor=#FAE5C7;strokeColor=#0F8B8D;fontColor=#143642;" parent="1" vertex="1">
          <mxGeometry x="2050" y="1457" width="100" height="40" as="geometry" />
        </mxCell>
        <mxCell id="6e-DpXRyT5qqWeavbAGu-213" value="" style="edgeStyle=entityRelationEdgeStyle;fontSize=12;html=1;endArrow=ERone;endFill=1;rounded=0;entryX=0;entryY=0.5;entryDx=0;entryDy=0;exitX=0.983;exitY=0.483;exitDx=0;exitDy=0;exitPerimeter=0;labelBackgroundColor=none;fontColor=default;strokeColor=#A8201A;" parent="1" source="6e-DpXRyT5qqWeavbAGu-197" target="6e-DpXRyT5qqWeavbAGu-210" edge="1">
          <mxGeometry width="100" height="100" relative="1" as="geometry">
            <mxPoint x="1910" y="1410" as="sourcePoint" />
            <mxPoint x="2010" y="1310" as="targetPoint" />
          </mxGeometry>
        </mxCell>
        <mxCell id="6e-DpXRyT5qqWeavbAGu-215" style="edgeStyle=orthogonalEdgeStyle;rounded=0;orthogonalLoop=1;jettySize=auto;html=1;endArrow=none;endFill=0;labelBackgroundColor=none;fontColor=default;strokeColor=#A8201A;" parent="1" source="6e-DpXRyT5qqWeavbAGu-214" target="6e-DpXRyT5qqWeavbAGu-210" edge="1">
          <mxGeometry relative="1" as="geometry" />
        </mxCell>
        <mxCell id="6e-DpXRyT5qqWeavbAGu-214" value="Id_Estado&amp;nbsp;" style="ellipse;whiteSpace=wrap;html=1;align=center;fontStyle=4;labelBackgroundColor=none;fillColor=#FAE5C7;strokeColor=#0F8B8D;fontColor=#143642;" parent="1" vertex="1">
          <mxGeometry x="1924" y="1412" width="100" height="40" as="geometry" />
        </mxCell>
        <mxCell id="6e-DpXRyT5qqWeavbAGu-217" value="NombreEstado" style="ellipse;whiteSpace=wrap;html=1;align=center;rounded=0;labelBackgroundColor=none;fillColor=#FAE5C7;strokeColor=#0F8B8D;fontColor=#143642;" parent="1" vertex="1">
          <mxGeometry x="2050" y="1346" width="100" height="40" as="geometry" />
        </mxCell>
        <mxCell id="m5P5q0p0tQF4HmMwArrf-195" style="edgeStyle=orthogonalEdgeStyle;rounded=0;orthogonalLoop=1;jettySize=auto;html=1;exitX=1;exitY=0.5;exitDx=0;exitDy=0;strokeColor=#A8201A;fontColor=#143642;fillColor=#FAE5C7;entryX=0.038;entryY=0.469;entryDx=0;entryDy=0;entryPerimeter=0;endArrow=none;endFill=0;" edge="1" parent="1" source="m5P5q0p0tQF4HmMwArrf-78" target="m5P5q0p0tQF4HmMwArrf-113">
          <mxGeometry relative="1" as="geometry">
            <mxPoint x="2394" y="1151" as="targetPoint" />
          </mxGeometry>
        </mxCell>
        <mxCell id="m5P5q0p0tQF4HmMwArrf-78" value="Laboratorios" style="whiteSpace=wrap;html=1;align=center;rounded=0;labelBackgroundColor=none;fillColor=#FAE5C7;strokeColor=#0F8B8D;fontColor=#143642;" vertex="1" parent="1">
          <mxGeometry x="2177" y="1139" width="100" height="41" as="geometry" />
        </mxCell>
        <mxCell id="m5P5q0p0tQF4HmMwArrf-97" style="edgeStyle=orthogonalEdgeStyle;rounded=0;orthogonalLoop=1;jettySize=auto;html=1;entryX=0.989;entryY=0.496;entryDx=0;entryDy=0;entryPerimeter=0;fontColor=default;endArrow=none;endFill=0;labelBackgroundColor=none;strokeColor=#A8201A;" edge="1" parent="1" source="m5P5q0p0tQF4HmMwArrf-81" target="6e-DpXRyT5qqWeavbAGu-195">
          <mxGeometry relative="1" as="geometry">
            <Array as="points">
              <mxPoint x="1776" y="1923" />
            </Array>
          </mxGeometry>
        </mxCell>
        <UserObject label="&lt;div style=&quot;&quot;&gt;&lt;font style=&quot;font-family: Helvetica; color: rgb(0, 0, 0); direction: ltr; letter-spacing: 0px; line-height: 120%; opacity: 1; font-size: 11.29px;&quot;&gt;EstatusSistem&lt;/font&gt;&lt;/div&gt;" tags="Background" id="m5P5q0p0tQF4HmMwArrf-81">
          <mxCell style="verticalAlign=middle;align=center;overflow=width;vsdxID=11;shape=stencil(nZBRDoQgDERP03+WHsHFe5iISyOCQdT19kIaIxq//Jtp3zTpAFaTaUYNUkwx+F6v1EYD+AUpyRkdKCYFqACrzgf9C352LfuxyWRWg1/yhT/nRE5IsZWuZtCSK8CPeI0e/hF+jV7AJM4PO7KWCyr390bSiNtEtQM=);spacingTop=-3;spacingBottom=-3;spacingLeft=-3;spacingRight=-3;points=[];labelBackgroundColor=none;rounded=0;html=1;whiteSpace=wrap;fillColor=#FAE5C7;strokeColor=#0F8B8D;fontColor=#143642;" vertex="1" parent="1">
            <mxGeometry x="1705" y="1771" width="100" height="40" as="geometry" />
          </mxCell>
        </UserObject>
        <mxCell id="m5P5q0p0tQF4HmMwArrf-86" style="edgeStyle=orthogonalEdgeStyle;rounded=0;orthogonalLoop=1;jettySize=auto;html=1;fontColor=default;endArrow=none;endFill=0;labelBackgroundColor=none;strokeColor=#A8201A;" edge="1" parent="1" source="m5P5q0p0tQF4HmMwArrf-83" target="m5P5q0p0tQF4HmMwArrf-81">
          <mxGeometry relative="1" as="geometry">
            <mxPoint x="1595.5" y="1692.1764705882351" as="targetPoint" />
          </mxGeometry>
        </mxCell>
        <UserObject label="&lt;span style=&quot;font-size: 11.29px;&quot;&gt;NombreEstatus&lt;/span&gt;" tags="Background" id="m5P5q0p0tQF4HmMwArrf-83">
          <mxCell style="verticalAlign=middle;align=center;overflow=width;vsdxID=59;shape=stencil(jZLdDoIwDIWfZrdka6PEa8T3MDJkERkZoOPtZekIG/h313an/XaaMsy66txKBrzrjb7Jpyr6iuGRAaimkkb1U8QwZ5iV2sir0UNTUN6endJFd/1wEyz1cdcBfKRsR+mJlJfBkFTEWp+mabIXVLJAJYAED17lS4L7NosRg48YCz5AA8oMXkauGTM0/BquNfiP10UuNtbsljKDf3j9igyXF2/cxtPH7bYtxoq3HqdgOYNS1TVdUfi+PpupRCeH+Qs=);spacingTop=-3;spacingBottom=-3;spacingLeft=-3;spacingRight=-3;points=[];labelBackgroundColor=none;rounded=0;html=1;whiteSpace=wrap;fillColor=#FAE5C7;strokeColor=#0F8B8D;fontColor=#143642;" vertex="1" parent="1">
            <mxGeometry x="1668" y="1673" width="93" height="40" as="geometry" />
          </mxCell>
        </UserObject>
        <mxCell id="m5P5q0p0tQF4HmMwArrf-85" style="edgeStyle=orthogonalEdgeStyle;rounded=0;orthogonalLoop=1;jettySize=auto;html=1;entryX=0;entryY=0.528;entryDx=0;entryDy=0;entryPerimeter=0;fontColor=default;endArrow=none;endFill=0;labelBackgroundColor=none;strokeColor=#A8201A;" edge="1" parent="1" source="m5P5q0p0tQF4HmMwArrf-84" target="m5P5q0p0tQF4HmMwArrf-81">
          <mxGeometry relative="1" as="geometry" />
        </mxCell>
        <UserObject label="&lt;div style=&quot;&quot;&gt;&lt;font style=&quot;font-family: Helvetica; color: rgb(0, 0, 0); direction: ltr; letter-spacing: 0px; line-height: 120%; opacity: 1; font-size: 11.29px;&quot;&gt;&lt;u&gt;Id_Estatus&lt;/u&gt;&lt;/font&gt;&lt;/div&gt;" tags="Background" id="m5P5q0p0tQF4HmMwArrf-84">
          <mxCell style="verticalAlign=middle;align=center;overflow=width;vsdxID=13;shape=stencil(jZLdDoIwDIWfZrdka6PEa8T3MDJkERkZoOPtZekIG/h313an/XaaMsy66txKBrzrjb7Jpyr6iuGRAaimkkb1U8QwZ5iV2sir0UNTUN6endJFd/1wEyz1cdcBfKRsR+mJlJfBkFTEWp+mabIXVLJAJYAED17lS4L7NosRg48YCz5AA8oMXkauGTM0/BquNfiP10UuNtbsljKDf3j9igyXF2/cxtPH7bYtxoq3HqdgOYNS1TVdUfi+PpupRCeH+Qs=);spacingTop=-3;spacingBottom=-3;spacingLeft=-3;spacingRight=-3;points=[];labelBackgroundColor=none;rounded=0;html=1;whiteSpace=wrap;fillColor=#FAE5C7;strokeColor=#0F8B8D;fontColor=#143642;" vertex="1" parent="1">
            <mxGeometry x="1522" y="1816" width="90" height="40" as="geometry" />
          </mxCell>
        </UserObject>
        <UserObject label="&lt;div style=&quot;font-size: 1px&quot;&gt;&lt;font style=&quot;font-size:11.29px;font-family:Helvetica;color:#000000;direction:ltr;letter-spacing:0px;line-height:120%;opacity:1&quot;&gt;Tiene&lt;/font&gt;&lt;font style=&quot;font-size:0.97px;font-family:Helvetica;color:#000000;direction:ltr;letter-spacing:0px;line-height:120%;opacity:1&quot;&gt;&lt;br/&gt;&lt;/font&gt;&lt;/div&gt;" tags="Background" id="m5P5q0p0tQF4HmMwArrf-87">
          <mxCell style="verticalAlign=middle;align=center;overflow=width;vsdxID=10;shape=stencil(nZBLDoQgEERP03uk4wnUuYeJKB0RDDKj3l5Ix/iJcTG7KnhVSRdgMel6VCDFFLzr1UxN0IAlSElWK08hKsAKsGidV513X9uwH+tEJjW4X2pYOJeLFJFiZcvuw6QheyIzcUXzF/bWukcf2b9bL2QUx4ktGcMLnf/vk8QnnhOrDQ==);spacingTop=-3;spacingBottom=-3;spacingLeft=-3;spacingRight=-3;points=[];labelBackgroundColor=none;rounded=0;html=1;whiteSpace=wrap;fillColor=#FAE5C7;strokeColor=#0F8B8D;fontColor=#143642;" vertex="1" parent="1">
            <mxGeometry x="1270" y="1758" width="120" height="60" as="geometry" />
          </mxCell>
        </UserObject>
        <UserObject label="&lt;div style=&quot;&quot;&gt;&lt;font style=&quot;font-family: Helvetica; color: rgb(0, 0, 0); direction: ltr; letter-spacing: 0px; line-height: 120%; opacity: 1; font-size: 11.29px;&quot;&gt;EstatusUser&lt;/font&gt;&lt;/div&gt;" tags="Background" id="m5P5q0p0tQF4HmMwArrf-88">
          <mxCell style="verticalAlign=middle;align=center;overflow=width;vsdxID=11;shape=stencil(nZBRDoQgDERP03+WHsHFe5iISyOCQdT19kIaIxq//Jtp3zTpAFaTaUYNUkwx+F6v1EYD+AUpyRkdKCYFqACrzgf9C352LfuxyWRWg1/yhT/nRE5IsZWuZtCSK8CPeI0e/hF+jV7AJM4PO7KWCyr390bSiNtEtQM=);spacingTop=-3;spacingBottom=-3;spacingLeft=-3;spacingRight=-3;points=[];labelBackgroundColor=none;rounded=0;html=1;whiteSpace=wrap;fillColor=#FAE5C7;strokeColor=#0F8B8D;fontColor=#143642;" vertex="1" parent="1">
            <mxGeometry x="1238" y="1903" width="100" height="40" as="geometry" />
          </mxCell>
        </UserObject>
        <mxCell id="m5P5q0p0tQF4HmMwArrf-92" style="edgeStyle=orthogonalEdgeStyle;rounded=0;orthogonalLoop=1;jettySize=auto;html=1;fontColor=default;endArrow=none;endFill=0;labelBackgroundColor=none;strokeColor=#A8201A;" edge="1" parent="1" source="m5P5q0p0tQF4HmMwArrf-90">
          <mxGeometry relative="1" as="geometry">
            <mxPoint x="1236" y="1932" as="targetPoint" />
          </mxGeometry>
        </mxCell>
        <UserObject label="&lt;div style=&quot;&quot;&gt;&lt;font style=&quot;font-family: Helvetica; color: rgb(0, 0, 0); direction: ltr; letter-spacing: 0px; line-height: 120%; opacity: 1; font-size: 11.29px;&quot;&gt;&lt;u&gt;Id_EstatusUser&lt;/u&gt;&lt;/font&gt;&lt;/div&gt;" tags="Background" id="m5P5q0p0tQF4HmMwArrf-90">
          <mxCell style="verticalAlign=middle;align=center;overflow=width;vsdxID=13;shape=stencil(jZLdDoIwDIWfZrdka6PEa8T3MDJkERkZoOPtZekIG/h313an/XaaMsy66txKBrzrjb7Jpyr6iuGRAaimkkb1U8QwZ5iV2sir0UNTUN6endJFd/1wEyz1cdcBfKRsR+mJlJfBkFTEWp+mabIXVLJAJYAED17lS4L7NosRg48YCz5AA8oMXkauGTM0/BquNfiP10UuNtbsljKDf3j9igyXF2/cxtPH7bYtxoq3HqdgOYNS1TVdUfi+PpupRCeH+Qs=);spacingTop=-3;spacingBottom=-3;spacingLeft=-3;spacingRight=-3;points=[];labelBackgroundColor=none;rounded=0;html=1;whiteSpace=wrap;fillColor=#FAE5C7;strokeColor=#0F8B8D;fontColor=#143642;" vertex="1" parent="1">
            <mxGeometry x="1036.5" y="1913" width="90" height="40" as="geometry" />
          </mxCell>
        </UserObject>
        <mxCell id="m5P5q0p0tQF4HmMwArrf-93" style="edgeStyle=orthogonalEdgeStyle;rounded=0;orthogonalLoop=1;jettySize=auto;html=1;entryX=0.264;entryY=0.994;entryDx=0;entryDy=0;entryPerimeter=0;fontColor=default;endArrow=none;endFill=0;labelBackgroundColor=none;strokeColor=#A8201A;" edge="1" parent="1" source="m5P5q0p0tQF4HmMwArrf-91" target="m5P5q0p0tQF4HmMwArrf-88">
          <mxGeometry relative="1" as="geometry" />
        </mxCell>
        <UserObject label="&lt;div style=&quot;&quot;&gt;&lt;span style=&quot;font-size: 11.29px;&quot;&gt;DEstatusUser&lt;/span&gt;&lt;/div&gt;" tags="Background" id="m5P5q0p0tQF4HmMwArrf-91">
          <mxCell style="verticalAlign=middle;align=center;overflow=width;vsdxID=59;shape=stencil(jZLdDoIwDIWfZrdka6PEa8T3MDJkERkZoOPtZekIG/h313an/XaaMsy66txKBrzrjb7Jpyr6iuGRAaimkkb1U8QwZ5iV2sir0UNTUN6endJFd/1wEyz1cdcBfKRsR+mJlJfBkFTEWp+mabIXVLJAJYAED17lS4L7NosRg48YCz5AA8oMXkauGTM0/BquNfiP10UuNtbsljKDf3j9igyXF2/cxtPH7bYtxoq3HqdgOYNS1TVdUfi+PpupRCeH+Qs=);spacingTop=-3;spacingBottom=-3;spacingLeft=-3;spacingRight=-3;points=[];labelBackgroundColor=none;rounded=0;html=1;whiteSpace=wrap;fillColor=#FAE5C7;strokeColor=#0F8B8D;fontColor=#143642;" vertex="1" parent="1">
            <mxGeometry x="1217" y="2050" width="97" height="40" as="geometry" />
          </mxCell>
        </UserObject>
        <mxCell id="m5P5q0p0tQF4HmMwArrf-96" value="" style="edgeStyle=entityRelationEdgeStyle;fontSize=12;html=1;endArrow=ERone;endFill=1;rounded=0;fontColor=default;exitX=0.992;exitY=0.53;exitDx=0;exitDy=0;exitPerimeter=0;labelBackgroundColor=none;strokeColor=#A8201A;" edge="1" parent="1" source="m5P5q0p0tQF4HmMwArrf-87">
          <mxGeometry width="100" height="100" relative="1" as="geometry">
            <mxPoint x="1137" y="2015" as="sourcePoint" />
            <mxPoint x="1237" y="1915" as="targetPoint" />
          </mxGeometry>
        </mxCell>
        <mxCell id="m5P5q0p0tQF4HmMwArrf-98" value="" style="edgeStyle=entityRelationEdgeStyle;fontSize=12;html=1;endArrow=ERone;endFill=1;rounded=0;fontColor=default;labelBackgroundColor=none;strokeColor=#A8201A;" edge="1" parent="1">
          <mxGeometry width="100" height="100" relative="1" as="geometry">
            <mxPoint x="1504" y="1922" as="sourcePoint" />
            <mxPoint x="1368" y="1922.41" as="targetPoint" />
          </mxGeometry>
        </mxCell>
        <mxCell id="m5P5q0p0tQF4HmMwArrf-104" value="" style="edgeStyle=entityRelationEdgeStyle;fontSize=12;html=1;endArrow=ERoneToMany;rounded=0;strokeColor=#A8201A;fontColor=#143642;fillColor=#FAE5C7;" edge="1" parent="1">
          <mxGeometry width="100" height="100" relative="1" as="geometry">
            <mxPoint x="2011" y="1152" as="sourcePoint" />
            <mxPoint x="2176" y="1173" as="targetPoint" />
          </mxGeometry>
        </mxCell>
        <mxCell id="m5P5q0p0tQF4HmMwArrf-106" style="edgeStyle=orthogonalEdgeStyle;rounded=0;orthogonalLoop=1;jettySize=auto;html=1;entryX=0;entryY=0.5;entryDx=0;entryDy=0;strokeColor=#A8201A;fontColor=#143642;fillColor=#FAE5C7;endArrow=none;endFill=0;" edge="1" parent="1" source="m5P5q0p0tQF4HmMwArrf-105" target="m5P5q0p0tQF4HmMwArrf-78">
          <mxGeometry relative="1" as="geometry" />
        </mxCell>
        <mxCell id="m5P5q0p0tQF4HmMwArrf-105" value="Id_Laboratorio" style="ellipse;whiteSpace=wrap;html=1;align=center;fontStyle=4;rounded=0;labelBackgroundColor=none;fillColor=#FAE5C7;strokeColor=#0F8B8D;fontColor=#143642;" vertex="1" parent="1">
          <mxGeometry x="2017" y="1070" width="100" height="40" as="geometry" />
        </mxCell>
        <mxCell id="m5P5q0p0tQF4HmMwArrf-110" style="edgeStyle=orthogonalEdgeStyle;rounded=0;orthogonalLoop=1;jettySize=auto;html=1;entryX=0.332;entryY=-0.052;entryDx=0;entryDy=0;entryPerimeter=0;strokeColor=#A8201A;fontColor=#143642;fillColor=#FAE5C7;endArrow=none;endFill=0;exitX=0;exitY=1;exitDx=0;exitDy=0;" edge="1" parent="1" source="m5P5q0p0tQF4HmMwArrf-124" target="m5P5q0p0tQF4HmMwArrf-78">
          <mxGeometry relative="1" as="geometry">
            <mxPoint x="2324" y="1078" as="sourcePoint" />
          </mxGeometry>
        </mxCell>
        <mxCell id="m5P5q0p0tQF4HmMwArrf-109" style="edgeStyle=orthogonalEdgeStyle;rounded=0;orthogonalLoop=1;jettySize=auto;html=1;entryX=0.332;entryY=0.063;entryDx=0;entryDy=0;entryPerimeter=0;strokeColor=#A8201A;fontColor=#143642;fillColor=#FAE5C7;endArrow=none;endFill=0;" edge="1" parent="1" source="m5P5q0p0tQF4HmMwArrf-108" target="m5P5q0p0tQF4HmMwArrf-78">
          <mxGeometry relative="1" as="geometry" />
        </mxCell>
        <mxCell id="m5P5q0p0tQF4HmMwArrf-108" value="NombreLaboratorio" style="ellipse;whiteSpace=wrap;html=1;align=center;rounded=0;labelBackgroundColor=none;fillColor=#FAE5C7;strokeColor=#0F8B8D;fontColor=#143642;" vertex="1" parent="1">
          <mxGeometry x="2077" y="960" width="100" height="40" as="geometry" />
        </mxCell>
        <mxCell id="m5P5q0p0tQF4HmMwArrf-111" value="Almacen" style="whiteSpace=wrap;html=1;align=center;rounded=0;labelBackgroundColor=none;fillColor=#FAE5C7;strokeColor=#0F8B8D;fontColor=#143642;" vertex="1" parent="1">
          <mxGeometry x="2691" y="1057" width="100" height="41" as="geometry" />
        </mxCell>
        <UserObject label="&lt;div style=&quot;font-size: 1px&quot;&gt;&lt;font style=&quot;font-size:11.29px;font-family:Helvetica;color:#000000;direction:ltr;letter-spacing:0px;line-height:120%;opacity:1&quot;&gt;Tiene&lt;/font&gt;&lt;font style=&quot;font-size:0.97px;font-family:Helvetica;color:#000000;direction:ltr;letter-spacing:0px;line-height:120%;opacity:1&quot;&gt;&lt;br/&gt;&lt;/font&gt;&lt;/div&gt;" tags="Background" id="m5P5q0p0tQF4HmMwArrf-113">
          <mxCell style="verticalAlign=middle;align=center;overflow=width;vsdxID=10;shape=stencil(nZBLDoQgEERP03uk4wnUuYeJKB0RDDKj3l5Ix/iJcTG7KnhVSRdgMel6VCDFFLzr1UxN0IAlSElWK08hKsAKsGidV513X9uwH+tEJjW4X2pYOJeLFJFiZcvuw6QheyIzcUXzF/bWukcf2b9bL2QUx4ktGcMLnf/vk8QnnhOrDQ==);spacingTop=-3;spacingBottom=-3;spacingLeft=-3;spacingRight=-3;points=[];labelBackgroundColor=none;rounded=0;html=1;whiteSpace=wrap;fillColor=#FAE5C7;strokeColor=#0F8B8D;fontColor=#143642;" vertex="1" parent="1">
            <mxGeometry x="2397" y="1119" width="120" height="60" as="geometry" />
          </mxCell>
        </UserObject>
        <mxCell id="m5P5q0p0tQF4HmMwArrf-114" value="" style="edgeStyle=entityRelationEdgeStyle;fontSize=12;html=1;endArrow=ERzeroToOne;endFill=1;rounded=0;strokeColor=#A8201A;fontColor=#143642;fillColor=#FAE5C7;entryX=0;entryY=0.5;entryDx=0;entryDy=0;exitX=0.992;exitY=0.5;exitDx=0;exitDy=0;exitPerimeter=0;" edge="1" parent="1" source="m5P5q0p0tQF4HmMwArrf-113" target="m5P5q0p0tQF4HmMwArrf-111">
          <mxGeometry width="100" height="100" relative="1" as="geometry">
            <mxPoint x="2580" y="1067" as="sourcePoint" />
            <mxPoint x="2680" y="967" as="targetPoint" />
          </mxGeometry>
        </mxCell>
        <mxCell id="m5P5q0p0tQF4HmMwArrf-118" style="edgeStyle=orthogonalEdgeStyle;rounded=0;orthogonalLoop=1;jettySize=auto;html=1;entryX=0;entryY=0.25;entryDx=0;entryDy=0;strokeColor=#A8201A;fontColor=#143642;fillColor=#FAE5C7;endArrow=none;endFill=0;" edge="1" parent="1" source="m5P5q0p0tQF4HmMwArrf-115" target="m5P5q0p0tQF4HmMwArrf-111">
          <mxGeometry relative="1" as="geometry" />
        </mxCell>
        <mxCell id="m5P5q0p0tQF4HmMwArrf-115" value="Id_Almacen" style="ellipse;whiteSpace=wrap;html=1;align=center;fontStyle=4;rounded=0;labelBackgroundColor=none;fillColor=#FAE5C7;strokeColor=#0F8B8D;fontColor=#143642;" vertex="1" parent="1">
          <mxGeometry x="2532" y="1048" width="101" height="40" as="geometry" />
        </mxCell>
        <mxCell id="m5P5q0p0tQF4HmMwArrf-120" style="edgeStyle=orthogonalEdgeStyle;rounded=0;orthogonalLoop=1;jettySize=auto;html=1;strokeColor=#A8201A;fontColor=#143642;fillColor=#FAE5C7;endArrow=none;endFill=0;entryX=0.85;entryY=0.049;entryDx=0;entryDy=0;entryPerimeter=0;" edge="1" parent="1" source="m5P5q0p0tQF4HmMwArrf-116" target="m5P5q0p0tQF4HmMwArrf-111">
          <mxGeometry relative="1" as="geometry">
            <mxPoint x="2693" y="1060" as="targetPoint" />
          </mxGeometry>
        </mxCell>
        <mxCell id="m5P5q0p0tQF4HmMwArrf-116" value="Id_Plantel" style="ellipse;whiteSpace=wrap;html=1;align=center;rounded=0;labelBackgroundColor=none;fillColor=#FAE5C7;strokeColor=#0F8B8D;fontColor=#143642;" vertex="1" parent="1">
          <mxGeometry x="2786" y="970" width="100" height="40" as="geometry" />
        </mxCell>
        <mxCell id="m5P5q0p0tQF4HmMwArrf-119" value="" style="edgeStyle=orthogonalEdgeStyle;rounded=0;orthogonalLoop=1;jettySize=auto;html=1;strokeColor=#A8201A;fontColor=#143642;fillColor=#FAE5C7;endArrow=none;endFill=0;" edge="1" parent="1" source="m5P5q0p0tQF4HmMwArrf-117" target="m5P5q0p0tQF4HmMwArrf-111">
          <mxGeometry relative="1" as="geometry" />
        </mxCell>
        <mxCell id="m5P5q0p0tQF4HmMwArrf-117" value="NombreAlmacen" style="ellipse;whiteSpace=wrap;html=1;align=center;rounded=0;labelBackgroundColor=none;fillColor=#FAE5C7;strokeColor=#0F8B8D;fontColor=#143642;" vertex="1" parent="1">
          <mxGeometry x="2699" y="937" width="100" height="35" as="geometry" />
        </mxCell>
        <mxCell id="m5P5q0p0tQF4HmMwArrf-164" style="edgeStyle=orthogonalEdgeStyle;rounded=0;orthogonalLoop=1;jettySize=auto;html=1;strokeColor=#A8201A;fontColor=#143642;fillColor=#FAE5C7;endArrow=none;endFill=0;exitX=0.831;exitY=1.102;exitDx=0;exitDy=0;exitPerimeter=0;" edge="1" parent="1" source="m5P5q0p0tQF4HmMwArrf-121" target="m5P5q0p0tQF4HmMwArrf-161">
          <mxGeometry relative="1" as="geometry" />
        </mxCell>
        <mxCell id="m5P5q0p0tQF4HmMwArrf-177" style="edgeStyle=orthogonalEdgeStyle;rounded=0;orthogonalLoop=1;jettySize=auto;html=1;entryX=0.989;entryY=0.473;entryDx=0;entryDy=0;entryPerimeter=0;strokeColor=#A8201A;fontColor=#143642;fillColor=#FAE5C7;exitX=0;exitY=1;exitDx=0;exitDy=0;endArrow=none;endFill=0;" edge="1" parent="1" source="m5P5q0p0tQF4HmMwArrf-121" target="m5P5q0p0tQF4HmMwArrf-176">
          <mxGeometry relative="1" as="geometry" />
        </mxCell>
        <mxCell id="m5P5q0p0tQF4HmMwArrf-121" value="materiales&amp;nbsp;" style="whiteSpace=wrap;html=1;align=center;rounded=0;labelBackgroundColor=none;fillColor=#FAE5C7;strokeColor=#0F8B8D;fontColor=#143642;" vertex="1" parent="1">
          <mxGeometry x="2696" y="1407" width="100" height="41" as="geometry" />
        </mxCell>
        <mxCell id="m5P5q0p0tQF4HmMwArrf-123" style="edgeStyle=orthogonalEdgeStyle;rounded=0;orthogonalLoop=1;jettySize=auto;html=1;strokeColor=#A8201A;fontColor=#143642;fillColor=#FAE5C7;entryX=0;entryY=0.5;entryDx=0;entryDy=0;endArrow=none;endFill=0;" edge="1" parent="1" source="m5P5q0p0tQF4HmMwArrf-122" target="m5P5q0p0tQF4HmMwArrf-121">
          <mxGeometry relative="1" as="geometry">
            <mxPoint x="2432.0588235294117" y="1255" as="targetPoint" />
          </mxGeometry>
        </mxCell>
        <mxCell id="m5P5q0p0tQF4HmMwArrf-122" value="Id_Material" style="ellipse;whiteSpace=wrap;html=1;align=center;fontStyle=4;rounded=0;labelBackgroundColor=none;fillColor=#FAE5C7;strokeColor=#0F8B8D;fontColor=#143642;" vertex="1" parent="1">
          <mxGeometry x="2619" y="1314" width="100" height="40" as="geometry" />
        </mxCell>
        <mxCell id="m5P5q0p0tQF4HmMwArrf-124" value="Id_Plantel" style="ellipse;whiteSpace=wrap;html=1;align=center;rounded=0;labelBackgroundColor=none;fillColor=#FAE5C7;strokeColor=#0F8B8D;fontColor=#143642;" vertex="1" parent="1">
          <mxGeometry x="2195" y="970" width="100" height="40" as="geometry" />
        </mxCell>
        <mxCell id="m5P5q0p0tQF4HmMwArrf-128" value="Id_Marca" style="ellipse;whiteSpace=wrap;html=1;align=center;rounded=0;labelBackgroundColor=none;fillColor=#FAE5C7;strokeColor=#0F8B8D;fontColor=#143642;" vertex="1" parent="1">
          <mxGeometry x="2886" y="1189" width="100" height="40" as="geometry" />
        </mxCell>
        <mxCell id="m5P5q0p0tQF4HmMwArrf-148" style="edgeStyle=orthogonalEdgeStyle;rounded=0;orthogonalLoop=1;jettySize=auto;html=1;strokeColor=#A8201A;fontColor=#143642;fillColor=#FAE5C7;endArrow=none;endFill=0;" edge="1" parent="1" source="m5P5q0p0tQF4HmMwArrf-130">
          <mxGeometry relative="1" as="geometry">
            <mxPoint x="2755" y="1406" as="targetPoint" />
          </mxGeometry>
        </mxCell>
        <mxCell id="m5P5q0p0tQF4HmMwArrf-130" value="DescripcionMat" style="ellipse;whiteSpace=wrap;html=1;align=center;rounded=0;labelBackgroundColor=none;fillColor=#FAE5C7;strokeColor=#0F8B8D;fontColor=#143642;" vertex="1" parent="1">
          <mxGeometry x="2781" y="1115" width="100" height="40" as="geometry" />
        </mxCell>
        <mxCell id="m5P5q0p0tQF4HmMwArrf-147" style="edgeStyle=orthogonalEdgeStyle;rounded=0;orthogonalLoop=1;jettySize=auto;html=1;strokeColor=#A8201A;fontColor=#143642;fillColor=#FAE5C7;exitX=1;exitY=0.5;exitDx=0;exitDy=0;endArrow=none;endFill=0;" edge="1" parent="1" source="m5P5q0p0tQF4HmMwArrf-131">
          <mxGeometry relative="1" as="geometry">
            <mxPoint x="2757" y="1405" as="targetPoint" />
            <Array as="points">
              <mxPoint x="2702" y="1241" />
              <mxPoint x="2752" y="1241" />
              <mxPoint x="2752" y="1407" />
            </Array>
          </mxGeometry>
        </mxCell>
        <mxCell id="m5P5q0p0tQF4HmMwArrf-131" value="NombreMat" style="ellipse;whiteSpace=wrap;html=1;align=center;rounded=0;labelBackgroundColor=none;fillColor=#FAE5C7;strokeColor=#0F8B8D;fontColor=#143642;" vertex="1" parent="1">
          <mxGeometry x="2572" y="1221" width="112" height="40" as="geometry" />
        </mxCell>
        <mxCell id="m5P5q0p0tQF4HmMwArrf-133" style="edgeStyle=orthogonalEdgeStyle;rounded=0;orthogonalLoop=1;jettySize=auto;html=1;strokeColor=#A8201A;fontColor=#143642;fillColor=#FAE5C7;exitX=0.5;exitY=1;exitDx=0;exitDy=0;endArrow=none;endFill=0;entryX=0.017;entryY=0.5;entryDx=0;entryDy=0;entryPerimeter=0;" edge="1" parent="1" source="m5P5q0p0tQF4HmMwArrf-78" target="m5P5q0p0tQF4HmMwArrf-134">
          <mxGeometry relative="1" as="geometry">
            <mxPoint x="2306" y="1239" as="targetPoint" />
            <mxPoint x="2205" y="1215" as="sourcePoint" />
            <Array as="points">
              <mxPoint x="2227" y="1200" />
              <mxPoint x="2297" y="1200" />
              <mxPoint x="2297" y="1222" />
              <mxPoint x="2294" y="1222" />
              <mxPoint x="2294" y="1245" />
            </Array>
          </mxGeometry>
        </mxCell>
        <UserObject label="&lt;div style=&quot;font-size: 1px&quot;&gt;&lt;font style=&quot;font-size:11.29px;font-family:Helvetica;color:#000000;direction:ltr;letter-spacing:0px;line-height:120%;opacity:1&quot;&gt;Tiene&lt;/font&gt;&lt;font style=&quot;font-size:0.97px;font-family:Helvetica;color:#000000;direction:ltr;letter-spacing:0px;line-height:120%;opacity:1&quot;&gt;&lt;br/&gt;&lt;/font&gt;&lt;/div&gt;" tags="Background" id="m5P5q0p0tQF4HmMwArrf-134">
          <mxCell style="verticalAlign=middle;align=center;overflow=width;vsdxID=10;shape=stencil(nZBLDoQgEERP03uk4wnUuYeJKB0RDDKj3l5Ix/iJcTG7KnhVSRdgMel6VCDFFLzr1UxN0IAlSElWK08hKsAKsGidV513X9uwH+tEJjW4X2pYOJeLFJFiZcvuw6QheyIzcUXzF/bWukcf2b9bL2QUx4ktGcMLnf/vk8QnnhOrDQ==);spacingTop=-3;spacingBottom=-3;spacingLeft=-3;spacingRight=-3;points=[];labelBackgroundColor=none;rounded=0;html=1;whiteSpace=wrap;fillColor=#FAE5C7;strokeColor=#0F8B8D;fontColor=#143642;" vertex="1" parent="1">
            <mxGeometry x="2328" y="1254" width="120" height="60" as="geometry" />
          </mxCell>
        </UserObject>
        <mxCell id="m5P5q0p0tQF4HmMwArrf-135" value="" style="edgeStyle=entityRelationEdgeStyle;fontSize=12;html=1;endArrow=ERmany;rounded=0;strokeColor=#A8201A;fontColor=#143642;fillColor=#FAE5C7;exitX=0.992;exitY=0.5;exitDx=0;exitDy=0;exitPerimeter=0;entryX=0;entryY=0.75;entryDx=0;entryDy=0;" edge="1" parent="1" source="m5P5q0p0tQF4HmMwArrf-134" target="m5P5q0p0tQF4HmMwArrf-121">
          <mxGeometry width="100" height="100" relative="1" as="geometry">
            <mxPoint x="2460" y="1247" as="sourcePoint" />
            <mxPoint x="2691" y="1444.3529411764705" as="targetPoint" />
          </mxGeometry>
        </mxCell>
        <mxCell id="m5P5q0p0tQF4HmMwArrf-129" value="Id_unidadM" style="ellipse;whiteSpace=wrap;html=1;align=center;rounded=0;labelBackgroundColor=none;fillColor=#FAE5C7;strokeColor=#0F8B8D;fontColor=#143642;" vertex="1" parent="1">
          <mxGeometry x="2923" y="1254" width="100" height="40" as="geometry" />
        </mxCell>
        <mxCell id="m5P5q0p0tQF4HmMwArrf-149" style="edgeStyle=orthogonalEdgeStyle;rounded=0;orthogonalLoop=1;jettySize=auto;html=1;strokeColor=#A8201A;fontColor=#143642;fillColor=#FAE5C7;endArrow=none;endFill=0;" edge="1" parent="1" source="m5P5q0p0tQF4HmMwArrf-142">
          <mxGeometry relative="1" as="geometry">
            <mxPoint x="2755.5882352941176" y="1291" as="targetPoint" />
          </mxGeometry>
        </mxCell>
        <mxCell id="m5P5q0p0tQF4HmMwArrf-142" value="Id_unidadM" style="ellipse;whiteSpace=wrap;html=1;align=center;rounded=0;labelBackgroundColor=none;fillColor=#FAE5C7;strokeColor=#0F8B8D;fontColor=#143642;" vertex="1" parent="1">
          <mxGeometry x="2622" y="1149" width="100" height="40" as="geometry" />
        </mxCell>
        <mxCell id="m5P5q0p0tQF4HmMwArrf-143" value="PrecioMaterial" style="ellipse;whiteSpace=wrap;html=1;align=center;rounded=0;labelBackgroundColor=none;fillColor=#FAE5C7;strokeColor=#0F8B8D;fontColor=#143642;" vertex="1" parent="1">
          <mxGeometry x="2920" y="1319" width="100" height="40" as="geometry" />
        </mxCell>
        <mxCell id="m5P5q0p0tQF4HmMwArrf-144" value="Id_Categoria" style="ellipse;whiteSpace=wrap;html=1;align=center;rounded=0;labelBackgroundColor=none;fillColor=#FAE5C7;strokeColor=#0F8B8D;fontColor=#143642;" vertex="1" parent="1">
          <mxGeometry x="2909" y="1376" width="100" height="40" as="geometry" />
        </mxCell>
        <mxCell id="m5P5q0p0tQF4HmMwArrf-145" value="ImagenMat" style="ellipse;whiteSpace=wrap;html=1;align=center;rounded=0;labelBackgroundColor=none;fillColor=#FAE5C7;strokeColor=#0F8B8D;fontColor=#143642;" vertex="1" parent="1">
          <mxGeometry x="2914" y="1437" width="100" height="40" as="geometry" />
        </mxCell>
        <mxCell id="m5P5q0p0tQF4HmMwArrf-146" style="edgeStyle=orthogonalEdgeStyle;rounded=0;orthogonalLoop=1;jettySize=auto;html=1;exitX=0.5;exitY=1;exitDx=0;exitDy=0;strokeColor=#A8201A;fontColor=#143642;fillColor=#FAE5C7;" edge="1" parent="1" source="m5P5q0p0tQF4HmMwArrf-145" target="m5P5q0p0tQF4HmMwArrf-145">
          <mxGeometry relative="1" as="geometry" />
        </mxCell>
        <mxCell id="m5P5q0p0tQF4HmMwArrf-151" style="edgeStyle=orthogonalEdgeStyle;rounded=0;orthogonalLoop=1;jettySize=auto;html=1;strokeColor=#A8201A;fontColor=#143642;fillColor=#FAE5C7;endArrow=none;endFill=0;" edge="1" parent="1">
          <mxGeometry relative="1" as="geometry">
            <mxPoint x="2896" y="1219" as="sourcePoint" />
            <mxPoint x="2796" y="1405" as="targetPoint" />
          </mxGeometry>
        </mxCell>
        <mxCell id="m5P5q0p0tQF4HmMwArrf-152" style="edgeStyle=orthogonalEdgeStyle;rounded=0;orthogonalLoop=1;jettySize=auto;html=1;entryX=1;entryY=0;entryDx=0;entryDy=0;strokeColor=#A8201A;fontColor=#143642;fillColor=#FAE5C7;endArrow=none;endFill=0;" edge="1" parent="1" target="m5P5q0p0tQF4HmMwArrf-121">
          <mxGeometry relative="1" as="geometry">
            <mxPoint x="2923" y="1275" as="sourcePoint" />
            <mxPoint x="2793" y="1481" as="targetPoint" />
          </mxGeometry>
        </mxCell>
        <mxCell id="m5P5q0p0tQF4HmMwArrf-153" style="edgeStyle=orthogonalEdgeStyle;rounded=0;orthogonalLoop=1;jettySize=auto;html=1;entryX=1;entryY=0;entryDx=0;entryDy=0;strokeColor=#A8201A;fontColor=#143642;fillColor=#FAE5C7;endArrow=none;endFill=0;" edge="1" parent="1" target="m5P5q0p0tQF4HmMwArrf-121">
          <mxGeometry relative="1" as="geometry">
            <mxPoint x="2923" y="1341" as="sourcePoint" />
            <mxPoint x="2793" y="1547" as="targetPoint" />
          </mxGeometry>
        </mxCell>
        <mxCell id="m5P5q0p0tQF4HmMwArrf-154" style="edgeStyle=orthogonalEdgeStyle;rounded=0;orthogonalLoop=1;jettySize=auto;html=1;entryX=1;entryY=0.5;entryDx=0;entryDy=0;strokeColor=#A8201A;fontColor=#143642;fillColor=#FAE5C7;endArrow=none;endFill=0;" edge="1" parent="1" target="m5P5q0p0tQF4HmMwArrf-121">
          <mxGeometry relative="1" as="geometry">
            <mxPoint x="2911" y="1397" as="sourcePoint" />
            <mxPoint x="2781" y="1603" as="targetPoint" />
          </mxGeometry>
        </mxCell>
        <mxCell id="m5P5q0p0tQF4HmMwArrf-155" style="edgeStyle=orthogonalEdgeStyle;rounded=0;orthogonalLoop=1;jettySize=auto;html=1;strokeColor=#A8201A;fontColor=#143642;fillColor=#FAE5C7;endArrow=none;endFill=0;exitX=0;exitY=0.5;exitDx=0;exitDy=0;entryX=1;entryY=0.5;entryDx=0;entryDy=0;" edge="1" parent="1" source="m5P5q0p0tQF4HmMwArrf-145" target="m5P5q0p0tQF4HmMwArrf-121">
          <mxGeometry relative="1" as="geometry">
            <mxPoint x="2886" y="1467" as="sourcePoint" />
            <mxPoint x="2793" y="1450" as="targetPoint" />
          </mxGeometry>
        </mxCell>
        <mxCell id="m5P5q0p0tQF4HmMwArrf-160" value="" style="edgeStyle=orthogonalEdgeStyle;rounded=0;orthogonalLoop=1;jettySize=auto;html=1;strokeColor=#A8201A;fontColor=#143642;fillColor=#FAE5C7;endArrow=none;endFill=0;" edge="1" parent="1" source="m5P5q0p0tQF4HmMwArrf-156" target="m5P5q0p0tQF4HmMwArrf-159">
          <mxGeometry relative="1" as="geometry" />
        </mxCell>
        <mxCell id="m5P5q0p0tQF4HmMwArrf-156" value="marca" style="whiteSpace=wrap;html=1;align=center;rounded=0;labelBackgroundColor=none;fillColor=#FAE5C7;strokeColor=#0F8B8D;fontColor=#143642;" vertex="1" parent="1">
          <mxGeometry x="3073" y="1599" width="100" height="41" as="geometry" />
        </mxCell>
        <mxCell id="m5P5q0p0tQF4HmMwArrf-158" style="edgeStyle=orthogonalEdgeStyle;rounded=0;orthogonalLoop=1;jettySize=auto;html=1;entryX=0;entryY=0.5;entryDx=0;entryDy=0;strokeColor=#A8201A;fontColor=#143642;fillColor=#FAE5C7;endArrow=none;endFill=0;" edge="1" parent="1" source="m5P5q0p0tQF4HmMwArrf-157" target="m5P5q0p0tQF4HmMwArrf-156">
          <mxGeometry relative="1" as="geometry" />
        </mxCell>
        <mxCell id="m5P5q0p0tQF4HmMwArrf-157" value="Id_Marca" style="ellipse;whiteSpace=wrap;html=1;align=center;fontStyle=4;rounded=0;labelBackgroundColor=none;fillColor=#FAE5C7;strokeColor=#0F8B8D;fontColor=#143642;" vertex="1" parent="1">
          <mxGeometry x="2830" y="1537" width="100" height="40" as="geometry" />
        </mxCell>
        <mxCell id="m5P5q0p0tQF4HmMwArrf-159" value="NombreMarca" style="ellipse;whiteSpace=wrap;html=1;align=center;rounded=0;labelBackgroundColor=none;fillColor=#FAE5C7;strokeColor=#0F8B8D;fontColor=#143642;" vertex="1" parent="1">
          <mxGeometry x="2986" y="1490" width="100" height="40" as="geometry" />
        </mxCell>
        <UserObject label="&lt;div style=&quot;font-size: 1px&quot;&gt;&lt;font style=&quot;font-size:11.29px;font-family:Helvetica;color:#000000;direction:ltr;letter-spacing:0px;line-height:120%;opacity:1&quot;&gt;Tiene&lt;/font&gt;&lt;font style=&quot;font-size:0.97px;font-family:Helvetica;color:#000000;direction:ltr;letter-spacing:0px;line-height:120%;opacity:1&quot;&gt;&lt;br/&gt;&lt;/font&gt;&lt;/div&gt;" tags="Background" id="m5P5q0p0tQF4HmMwArrf-161">
          <mxCell style="verticalAlign=middle;align=center;overflow=width;vsdxID=10;shape=stencil(nZBLDoQgEERP03uk4wnUuYeJKB0RDDKj3l5Ix/iJcTG7KnhVSRdgMel6VCDFFLzr1UxN0IAlSElWK08hKsAKsGidV513X9uwH+tEJjW4X2pYOJeLFJFiZcvuw6QheyIzcUXzF/bWukcf2b9bL2QUx4ktGcMLnf/vk8QnnhOrDQ==);spacingTop=-3;spacingBottom=-3;spacingLeft=-3;spacingRight=-3;points=[];labelBackgroundColor=none;rounded=0;html=1;whiteSpace=wrap;fillColor=#FAE5C7;strokeColor=#0F8B8D;fontColor=#143642;" vertex="1" parent="1">
            <mxGeometry x="2762" y="1638" width="120" height="60" as="geometry" />
          </mxCell>
        </UserObject>
        <mxCell id="m5P5q0p0tQF4HmMwArrf-163" value="" style="edgeStyle=entityRelationEdgeStyle;fontSize=12;html=1;endArrow=ERzeroToMany;startArrow=ERzeroToOne;rounded=0;strokeColor=#A8201A;fontColor=#143642;fillColor=#FAE5C7;exitX=0.972;exitY=0.496;exitDx=0;exitDy=0;exitPerimeter=0;" edge="1" parent="1" source="m5P5q0p0tQF4HmMwArrf-161">
          <mxGeometry width="100" height="100" relative="1" as="geometry">
            <mxPoint x="2831" y="1611" as="sourcePoint" />
            <mxPoint x="3074" y="1636" as="targetPoint" />
          </mxGeometry>
        </mxCell>
        <mxCell id="m5P5q0p0tQF4HmMwArrf-186" style="edgeStyle=orthogonalEdgeStyle;rounded=0;orthogonalLoop=1;jettySize=auto;html=1;entryX=0.442;entryY=0.011;entryDx=0;entryDy=0;entryPerimeter=0;strokeColor=#A8201A;fontColor=#143642;fillColor=#FAE5C7;endArrow=none;endFill=0;" edge="1" parent="1" source="m5P5q0p0tQF4HmMwArrf-167" target="m5P5q0p0tQF4HmMwArrf-183">
          <mxGeometry relative="1" as="geometry" />
        </mxCell>
        <mxCell id="m5P5q0p0tQF4HmMwArrf-167" value="categoriamaterial" style="whiteSpace=wrap;html=1;align=center;rounded=0;labelBackgroundColor=none;fillColor=#FAE5C7;strokeColor=#0F8B8D;fontColor=#143642;" vertex="1" parent="1">
          <mxGeometry x="2404" y="1459" width="100" height="41" as="geometry" />
        </mxCell>
        <mxCell id="m5P5q0p0tQF4HmMwArrf-175" style="edgeStyle=orthogonalEdgeStyle;rounded=0;orthogonalLoop=1;jettySize=auto;html=1;entryX=0;entryY=0.5;entryDx=0;entryDy=0;strokeColor=#A8201A;fontColor=#143642;fillColor=#FAE5C7;" edge="1" parent="1" source="m5P5q0p0tQF4HmMwArrf-168" target="m5P5q0p0tQF4HmMwArrf-167">
          <mxGeometry relative="1" as="geometry" />
        </mxCell>
        <mxCell id="m5P5q0p0tQF4HmMwArrf-168" value="Id_Categoria" style="ellipse;whiteSpace=wrap;html=1;align=center;fontStyle=4;rounded=0;labelBackgroundColor=none;fillColor=#FAE5C7;strokeColor=#0F8B8D;fontColor=#143642;" vertex="1" parent="1">
          <mxGeometry x="2187" y="1460" width="100" height="40" as="geometry" />
        </mxCell>
        <mxCell id="m5P5q0p0tQF4HmMwArrf-174" style="edgeStyle=orthogonalEdgeStyle;rounded=0;orthogonalLoop=1;jettySize=auto;html=1;strokeColor=#A8201A;fontColor=#143642;fillColor=#FAE5C7;entryX=0.5;entryY=0;entryDx=0;entryDy=0;" edge="1" parent="1" source="m5P5q0p0tQF4HmMwArrf-169" target="m5P5q0p0tQF4HmMwArrf-167">
          <mxGeometry relative="1" as="geometry">
            <mxPoint x="2495.5882352941176" y="1443.9411764705883" as="targetPoint" />
          </mxGeometry>
        </mxCell>
        <mxCell id="m5P5q0p0tQF4HmMwArrf-169" value="NombreCate" style="ellipse;whiteSpace=wrap;html=1;align=center;rounded=0;labelBackgroundColor=none;fillColor=#FAE5C7;strokeColor=#0F8B8D;fontColor=#143642;" vertex="1" parent="1">
          <mxGeometry x="2295" y="1403" width="100" height="40" as="geometry" />
        </mxCell>
        <mxCell id="m5P5q0p0tQF4HmMwArrf-170" value="unidadmedida" style="whiteSpace=wrap;html=1;align=center;rounded=0;labelBackgroundColor=none;fillColor=#FAE5C7;strokeColor=#0F8B8D;fontColor=#143642;" vertex="1" parent="1">
          <mxGeometry x="2472" y="1675" width="100" height="41" as="geometry" />
        </mxCell>
        <mxCell id="m5P5q0p0tQF4HmMwArrf-182" style="edgeStyle=orthogonalEdgeStyle;rounded=0;orthogonalLoop=1;jettySize=auto;html=1;strokeColor=#A8201A;fontColor=#143642;fillColor=#FAE5C7;entryX=0;entryY=0.25;entryDx=0;entryDy=0;endArrow=none;endFill=0;" edge="1" parent="1" source="m5P5q0p0tQF4HmMwArrf-171" target="m5P5q0p0tQF4HmMwArrf-170">
          <mxGeometry relative="1" as="geometry">
            <mxPoint x="2522.6470588235293" y="1698" as="targetPoint" />
          </mxGeometry>
        </mxCell>
        <mxCell id="m5P5q0p0tQF4HmMwArrf-171" value="Id_UnidadM" style="ellipse;whiteSpace=wrap;html=1;align=center;fontStyle=4;rounded=0;labelBackgroundColor=none;fillColor=#FAE5C7;strokeColor=#0F8B8D;fontColor=#143642;" vertex="1" parent="1">
          <mxGeometry x="2277" y="1687" width="100" height="40" as="geometry" />
        </mxCell>
        <mxCell id="m5P5q0p0tQF4HmMwArrf-181" style="edgeStyle=orthogonalEdgeStyle;rounded=0;orthogonalLoop=1;jettySize=auto;html=1;entryX=0.144;entryY=0.073;entryDx=0;entryDy=0;entryPerimeter=0;strokeColor=#A8201A;fontColor=#143642;fillColor=#FAE5C7;endArrow=none;endFill=0;" edge="1" parent="1" source="m5P5q0p0tQF4HmMwArrf-172" target="m5P5q0p0tQF4HmMwArrf-170">
          <mxGeometry relative="1" as="geometry" />
        </mxCell>
        <mxCell id="m5P5q0p0tQF4HmMwArrf-172" value="DescripcionUnidad" style="ellipse;whiteSpace=wrap;html=1;align=center;rounded=0;labelBackgroundColor=none;fillColor=#FAE5C7;strokeColor=#0F8B8D;fontColor=#143642;" vertex="1" parent="1">
          <mxGeometry x="2332" y="1607" width="100" height="40" as="geometry" />
        </mxCell>
        <UserObject label="&lt;div style=&quot;font-size: 1px&quot;&gt;&lt;font style=&quot;font-size:11.29px;font-family:Helvetica;color:#000000;direction:ltr;letter-spacing:0px;line-height:120%;opacity:1&quot;&gt;Tiene&lt;/font&gt;&lt;font style=&quot;font-size:0.97px;font-family:Helvetica;color:#000000;direction:ltr;letter-spacing:0px;line-height:120%;opacity:1&quot;&gt;&lt;br/&gt;&lt;/font&gt;&lt;/div&gt;" tags="Background" id="m5P5q0p0tQF4HmMwArrf-176">
          <mxCell style="verticalAlign=middle;align=center;overflow=width;vsdxID=10;shape=stencil(nZBLDoQgEERP03uk4wnUuYeJKB0RDDKj3l5Ix/iJcTG7KnhVSRdgMel6VCDFFLzr1UxN0IAlSElWK08hKsAKsGidV513X9uwH+tEJjW4X2pYOJeLFJFiZcvuw6QheyIzcUXzF/bWukcf2b9bL2QUx4ktGcMLnf/vk8QnnhOrDQ==);spacingTop=-3;spacingBottom=-3;spacingLeft=-3;spacingRight=-3;points=[];labelBackgroundColor=none;rounded=0;html=1;whiteSpace=wrap;fillColor=#FAE5C7;strokeColor=#0F8B8D;fontColor=#143642;" vertex="1" parent="1">
            <mxGeometry x="2581" y="1453.5" width="94" height="47" as="geometry" />
          </mxCell>
        </UserObject>
        <mxCell id="m5P5q0p0tQF4HmMwArrf-179" value="" style="edgeStyle=entityRelationEdgeStyle;fontSize=12;html=1;endArrow=ERzeroToMany;startArrow=ERzeroToOne;rounded=0;strokeColor=#A8201A;fontColor=#143642;fillColor=#FAE5C7;entryX=1;entryY=0.5;entryDx=0;entryDy=0;exitX=0.001;exitY=0.548;exitDx=0;exitDy=0;exitPerimeter=0;" edge="1" parent="1" source="m5P5q0p0tQF4HmMwArrf-176" target="m5P5q0p0tQF4HmMwArrf-167">
          <mxGeometry width="100" height="100" relative="1" as="geometry">
            <mxPoint x="2542" y="1500" as="sourcePoint" />
            <mxPoint x="2521" y="1500" as="targetPoint" />
          </mxGeometry>
        </mxCell>
        <UserObject label="&lt;div style=&quot;font-size: 1px&quot;&gt;&lt;font style=&quot;font-size:11.29px;font-family:Helvetica;color:#000000;direction:ltr;letter-spacing:0px;line-height:120%;opacity:1&quot;&gt;Tiene&lt;/font&gt;&lt;font style=&quot;font-size:0.97px;font-family:Helvetica;color:#000000;direction:ltr;letter-spacing:0px;line-height:120%;opacity:1&quot;&gt;&lt;br/&gt;&lt;/font&gt;&lt;/div&gt;" tags="Background" id="m5P5q0p0tQF4HmMwArrf-183">
          <mxCell style="verticalAlign=middle;align=center;overflow=width;vsdxID=10;shape=stencil(nZBLDoQgEERP03uk4wnUuYeJKB0RDDKj3l5Ix/iJcTG7KnhVSRdgMel6VCDFFLzr1UxN0IAlSElWK08hKsAKsGidV513X9uwH+tEJjW4X2pYOJeLFJFiZcvuw6QheyIzcUXzF/bWukcf2b9bL2QUx4ktGcMLnf/vk8QnnhOrDQ==);spacingTop=-3;spacingBottom=-3;spacingLeft=-3;spacingRight=-3;points=[];labelBackgroundColor=none;rounded=0;html=1;whiteSpace=wrap;fillColor=#FAE5C7;strokeColor=#0F8B8D;fontColor=#143642;" vertex="1" parent="1">
            <mxGeometry x="2467" y="1543" width="94" height="47" as="geometry" />
          </mxCell>
        </UserObject>
        <mxCell id="m5P5q0p0tQF4HmMwArrf-187" value="" style="edgeStyle=entityRelationEdgeStyle;fontSize=12;html=1;endArrow=ERzeroToMany;startArrow=ERzeroToOne;rounded=0;strokeColor=#A8201A;fontColor=#143642;fillColor=#FAE5C7;entryX=1.018;entryY=0.561;entryDx=0;entryDy=0;entryPerimeter=0;" edge="1" parent="1" target="m5P5q0p0tQF4HmMwArrf-183">
          <mxGeometry width="100" height="100" relative="1" as="geometry">
            <mxPoint x="2572" y="1698" as="sourcePoint" />
            <mxPoint x="2627" y="1573" as="targetPoint" />
          </mxGeometry>
        </mxCell>
        <mxCell id="m5P5q0p0tQF4HmMwArrf-211" style="edgeStyle=orthogonalEdgeStyle;rounded=0;orthogonalLoop=1;jettySize=auto;html=1;exitX=1;exitY=0;exitDx=0;exitDy=0;strokeColor=#A8201A;fontColor=#143642;fillColor=#FAE5C7;endArrow=none;endFill=0;" edge="1" parent="1" source="m5P5q0p0tQF4HmMwArrf-188">
          <mxGeometry relative="1" as="geometry">
            <mxPoint x="2264.4285714285716" y="801.4285714285716" as="targetPoint" />
          </mxGeometry>
        </mxCell>
        <mxCell id="m5P5q0p0tQF4HmMwArrf-233" style="edgeStyle=orthogonalEdgeStyle;rounded=0;orthogonalLoop=1;jettySize=auto;html=1;exitX=1;exitY=0.25;exitDx=0;exitDy=0;strokeColor=#A8201A;fontColor=#143642;fillColor=#FAE5C7;endArrow=none;endFill=0;" edge="1" parent="1" source="m5P5q0p0tQF4HmMwArrf-188">
          <mxGeometry relative="1" as="geometry">
            <mxPoint x="2960" y="847" as="targetPoint" />
            <Array as="points">
              <mxPoint x="2024" y="772" />
              <mxPoint x="2024" y="883" />
              <mxPoint x="2506" y="883" />
              <mxPoint x="2506" y="847" />
            </Array>
          </mxGeometry>
        </mxCell>
        <mxCell id="m5P5q0p0tQF4HmMwArrf-188" value="inventario" style="whiteSpace=wrap;html=1;align=center;rounded=0;labelBackgroundColor=none;fillColor=#FAE5C7;strokeColor=#0F8B8D;fontColor=#143642;" vertex="1" parent="1">
          <mxGeometry x="1874" y="762" width="100" height="41" as="geometry" />
        </mxCell>
        <mxCell id="m5P5q0p0tQF4HmMwArrf-204" style="edgeStyle=orthogonalEdgeStyle;rounded=0;orthogonalLoop=1;jettySize=auto;html=1;exitX=1;exitY=0.5;exitDx=0;exitDy=0;strokeColor=#A8201A;fontColor=#143642;fillColor=#FAE5C7;endArrow=none;endFill=0;" edge="1" parent="1" source="m5P5q0p0tQF4HmMwArrf-189">
          <mxGeometry relative="1" as="geometry">
            <mxPoint x="1893" y="759" as="targetPoint" />
          </mxGeometry>
        </mxCell>
        <mxCell id="m5P5q0p0tQF4HmMwArrf-189" value="Id_Kardex" style="ellipse;whiteSpace=wrap;html=1;align=center;rounded=0;labelBackgroundColor=none;fillColor=#FAE5C7;strokeColor=#0F8B8D;fontColor=#143642;" vertex="1" parent="1">
          <mxGeometry x="1712" y="665" width="100" height="35" as="geometry" />
        </mxCell>
        <mxCell id="m5P5q0p0tQF4HmMwArrf-209" style="edgeStyle=orthogonalEdgeStyle;rounded=0;orthogonalLoop=1;jettySize=auto;html=1;exitX=0.5;exitY=1;exitDx=0;exitDy=0;strokeColor=#A8201A;fontColor=#143642;fillColor=#FAE5C7;endArrow=none;endFill=0;" edge="1" parent="1" source="m5P5q0p0tQF4HmMwArrf-190">
          <mxGeometry relative="1" as="geometry">
            <mxPoint x="2206" y="688" as="targetPoint" />
            <Array as="points">
              <mxPoint x="2324" y="688" />
              <mxPoint x="2202" y="688" />
            </Array>
          </mxGeometry>
        </mxCell>
        <mxCell id="m5P5q0p0tQF4HmMwArrf-190" value="CantidadTotal" style="ellipse;whiteSpace=wrap;html=1;align=center;rounded=0;labelBackgroundColor=none;fillColor=#FAE5C7;strokeColor=#0F8B8D;fontColor=#143642;" vertex="1" parent="1">
          <mxGeometry x="2274" y="633" width="100" height="35" as="geometry" />
        </mxCell>
        <mxCell id="m5P5q0p0tQF4HmMwArrf-208" style="edgeStyle=orthogonalEdgeStyle;rounded=0;orthogonalLoop=1;jettySize=auto;html=1;exitX=0.5;exitY=1;exitDx=0;exitDy=0;strokeColor=#A8201A;fontColor=#143642;fillColor=#FAE5C7;endArrow=none;endFill=0;" edge="1" parent="1" source="m5P5q0p0tQF4HmMwArrf-191">
          <mxGeometry relative="1" as="geometry">
            <mxPoint x="2062" y="686" as="targetPoint" />
            <Array as="points">
              <mxPoint x="2200" y="691" />
              <mxPoint x="2069" y="691" />
              <mxPoint x="2069" y="686" />
            </Array>
          </mxGeometry>
        </mxCell>
        <mxCell id="m5P5q0p0tQF4HmMwArrf-191" value="CantidadSistema" style="ellipse;whiteSpace=wrap;html=1;align=center;rounded=0;labelBackgroundColor=none;fillColor=#FAE5C7;strokeColor=#0F8B8D;fontColor=#143642;" vertex="1" parent="1">
          <mxGeometry x="2150" y="636" width="100" height="35" as="geometry" />
        </mxCell>
        <mxCell id="m5P5q0p0tQF4HmMwArrf-207" style="edgeStyle=orthogonalEdgeStyle;rounded=0;orthogonalLoop=1;jettySize=auto;html=1;exitX=0.5;exitY=1;exitDx=0;exitDy=0;strokeColor=#A8201A;fontColor=#143642;fillColor=#FAE5C7;endArrow=none;endFill=0;" edge="1" parent="1" source="m5P5q0p0tQF4HmMwArrf-192">
          <mxGeometry relative="1" as="geometry">
            <mxPoint x="1890" y="681" as="targetPoint" />
            <Array as="points">
              <mxPoint x="1939" y="684" />
              <mxPoint x="1890" y="684" />
            </Array>
          </mxGeometry>
        </mxCell>
        <mxCell id="m5P5q0p0tQF4HmMwArrf-192" value="FechaInventario" style="ellipse;whiteSpace=wrap;html=1;align=center;rounded=0;labelBackgroundColor=none;fillColor=#FAE5C7;strokeColor=#0F8B8D;fontColor=#143642;" vertex="1" parent="1">
          <mxGeometry x="1889" y="627" width="100" height="35" as="geometry" />
        </mxCell>
        <mxCell id="m5P5q0p0tQF4HmMwArrf-206" style="edgeStyle=orthogonalEdgeStyle;rounded=0;orthogonalLoop=1;jettySize=auto;html=1;exitX=0.5;exitY=1;exitDx=0;exitDy=0;strokeColor=#A8201A;fontColor=#143642;fillColor=#FAE5C7;endArrow=none;endFill=0;" edge="1" parent="1" source="m5P5q0p0tQF4HmMwArrf-193">
          <mxGeometry relative="1" as="geometry">
            <mxPoint x="1939" y="679" as="targetPoint" />
            <Array as="points">
              <mxPoint x="2067" y="686" />
            </Array>
          </mxGeometry>
        </mxCell>
        <mxCell id="m5P5q0p0tQF4HmMwArrf-193" value="CantidadFIsica" style="ellipse;whiteSpace=wrap;html=1;align=center;rounded=0;labelBackgroundColor=none;fillColor=#FAE5C7;strokeColor=#0F8B8D;fontColor=#143642;" vertex="1" parent="1">
          <mxGeometry x="2017" y="633" width="100" height="35" as="geometry" />
        </mxCell>
        <UserObject label="&lt;div style=&quot;font-size: 1px&quot;&gt;&lt;font style=&quot;font-size:11.29px;font-family:Helvetica;color:#000000;direction:ltr;letter-spacing:0px;line-height:120%;opacity:1&quot;&gt;Tiene&lt;/font&gt;&lt;font style=&quot;font-size:0.97px;font-family:Helvetica;color:#000000;direction:ltr;letter-spacing:0px;line-height:120%;opacity:1&quot;&gt;&lt;br/&gt;&lt;/font&gt;&lt;/div&gt;" tags="Background" id="m5P5q0p0tQF4HmMwArrf-198">
          <mxCell style="verticalAlign=middle;align=center;overflow=width;vsdxID=10;shape=stencil(nZBLDoQgEERP03uk4wnUuYeJKB0RDDKj3l5Ix/iJcTG7KnhVSRdgMel6VCDFFLzr1UxN0IAlSElWK08hKsAKsGidV513X9uwH+tEJjW4X2pYOJeLFJFiZcvuw6QheyIzcUXzF/bWukcf2b9bL2QUx4ktGcMLnf/vk8QnnhOrDQ==);spacingTop=-3;spacingBottom=-3;spacingLeft=-3;spacingRight=-3;points=[];labelBackgroundColor=none;rounded=0;html=1;whiteSpace=wrap;fillColor=#FAE5C7;strokeColor=#0F8B8D;fontColor=#143642;" vertex="1" parent="1">
            <mxGeometry x="1790" y="1010" width="120" height="60" as="geometry" />
          </mxCell>
        </UserObject>
        <mxCell id="m5P5q0p0tQF4HmMwArrf-200" value="" style="edgeStyle=entityRelationEdgeStyle;fontSize=12;html=1;endArrow=ERone;endFill=1;rounded=0;strokeColor=#A8201A;fontColor=#143642;fillColor=#FAE5C7;exitX=1.001;exitY=0.5;exitDx=0;exitDy=0;exitPerimeter=0;" edge="1" parent="1" source="m5P5q0p0tQF4HmMwArrf-198" target="m5P5q0p0tQF4HmMwArrf-188">
          <mxGeometry width="100" height="100" relative="1" as="geometry">
            <mxPoint x="1848" y="1013" as="sourcePoint" />
            <mxPoint x="1948" y="913" as="targetPoint" />
          </mxGeometry>
        </mxCell>
        <mxCell id="m5P5q0p0tQF4HmMwArrf-202" style="edgeStyle=orthogonalEdgeStyle;rounded=0;orthogonalLoop=1;jettySize=auto;html=1;exitX=1;exitY=0.5;exitDx=0;exitDy=0;entryX=0;entryY=0.5;entryDx=0;entryDy=0;strokeColor=#A8201A;fontColor=#143642;fillColor=#FAE5C7;endArrow=none;endFill=0;" edge="1" parent="1" source="m5P5q0p0tQF4HmMwArrf-201" target="m5P5q0p0tQF4HmMwArrf-188">
          <mxGeometry relative="1" as="geometry" />
        </mxCell>
        <mxCell id="m5P5q0p0tQF4HmMwArrf-201" value="Id_Laboratorio" style="ellipse;whiteSpace=wrap;html=1;align=center;fontStyle=4;rounded=0;labelBackgroundColor=none;fillColor=#FAE5C7;strokeColor=#0F8B8D;fontColor=#143642;" vertex="1" parent="1">
          <mxGeometry x="1705" y="762" width="100" height="40" as="geometry" />
        </mxCell>
        <mxCell id="m5P5q0p0tQF4HmMwArrf-210" value="kardex" style="whiteSpace=wrap;html=1;align=center;rounded=0;labelBackgroundColor=none;fillColor=#FAE5C7;strokeColor=#0F8B8D;fontColor=#143642;" vertex="1" parent="1">
          <mxGeometry x="2519" y="773" width="100" height="41" as="geometry" />
        </mxCell>
        <UserObject label="&lt;div style=&quot;font-size: 1px&quot;&gt;&lt;font style=&quot;font-size:11.29px;font-family:Helvetica;color:#000000;direction:ltr;letter-spacing:0px;line-height:120%;opacity:1&quot;&gt;Tiene&lt;/font&gt;&lt;font style=&quot;font-size:0.97px;font-family:Helvetica;color:#000000;direction:ltr;letter-spacing:0px;line-height:120%;opacity:1&quot;&gt;&lt;br/&gt;&lt;/font&gt;&lt;/div&gt;" tags="Background" id="m5P5q0p0tQF4HmMwArrf-212">
          <mxCell style="verticalAlign=middle;align=center;overflow=width;vsdxID=10;shape=stencil(nZBLDoQgEERP03uk4wnUuYeJKB0RDDKj3l5Ix/iJcTG7KnhVSRdgMel6VCDFFLzr1UxN0IAlSElWK08hKsAKsGidV513X9uwH+tEJjW4X2pYOJeLFJFiZcvuw6QheyIzcUXzF/bWukcf2b9bL2QUx4ktGcMLnf/vk8QnnhOrDQ==);spacingTop=-3;spacingBottom=-3;spacingLeft=-3;spacingRight=-3;points=[];labelBackgroundColor=none;rounded=0;html=1;whiteSpace=wrap;fillColor=#FAE5C7;strokeColor=#0F8B8D;fontColor=#143642;" vertex="1" parent="1">
            <mxGeometry x="2264" y="769" width="120" height="60" as="geometry" />
          </mxCell>
        </UserObject>
        <mxCell id="m5P5q0p0tQF4HmMwArrf-214" value="" style="edgeStyle=entityRelationEdgeStyle;fontSize=12;html=1;endArrow=ERone;endFill=1;rounded=0;strokeColor=#A8201A;fontColor=#143642;fillColor=#FAE5C7;" edge="1" parent="1">
          <mxGeometry width="100" height="100" relative="1" as="geometry">
            <mxPoint x="2382" y="798" as="sourcePoint" />
            <mxPoint x="2517" y="803" as="targetPoint" />
          </mxGeometry>
        </mxCell>
        <mxCell id="m5P5q0p0tQF4HmMwArrf-216" style="edgeStyle=orthogonalEdgeStyle;rounded=0;orthogonalLoop=1;jettySize=auto;html=1;exitX=1;exitY=0.5;exitDx=0;exitDy=0;entryX=0;entryY=0.25;entryDx=0;entryDy=0;strokeColor=#A8201A;fontColor=#143642;fillColor=#FAE5C7;endArrow=none;endFill=0;" edge="1" parent="1" source="m5P5q0p0tQF4HmMwArrf-215" target="m5P5q0p0tQF4HmMwArrf-210">
          <mxGeometry relative="1" as="geometry" />
        </mxCell>
        <mxCell id="m5P5q0p0tQF4HmMwArrf-215" value="Id_Kardex" style="ellipse;whiteSpace=wrap;html=1;align=center;fontStyle=4;rounded=0;labelBackgroundColor=none;fillColor=#FAE5C7;strokeColor=#0F8B8D;fontColor=#143642;" vertex="1" parent="1">
          <mxGeometry x="2377" y="729" width="101" height="40" as="geometry" />
        </mxCell>
        <mxCell id="m5P5q0p0tQF4HmMwArrf-232" style="edgeStyle=orthogonalEdgeStyle;rounded=0;orthogonalLoop=1;jettySize=auto;html=1;exitX=0.5;exitY=1;exitDx=0;exitDy=0;strokeColor=#A8201A;fontColor=#143642;fillColor=#FAE5C7;endArrow=none;endFill=0;" edge="1" parent="1" source="m5P5q0p0tQF4HmMwArrf-217">
          <mxGeometry relative="1" as="geometry">
            <mxPoint x="2750" y="726" as="targetPoint" />
            <Array as="points">
              <mxPoint x="2876" y="726" />
            </Array>
          </mxGeometry>
        </mxCell>
        <mxCell id="m5P5q0p0tQF4HmMwArrf-217" value="Id_UsuarioM" style="ellipse;whiteSpace=wrap;html=1;align=center;rounded=0;labelBackgroundColor=none;fillColor=#FAE5C7;strokeColor=#0F8B8D;fontColor=#143642;" vertex="1" parent="1">
          <mxGeometry x="2826" y="671" width="100" height="35" as="geometry" />
        </mxCell>
        <mxCell id="m5P5q0p0tQF4HmMwArrf-231" style="edgeStyle=orthogonalEdgeStyle;rounded=0;orthogonalLoop=1;jettySize=auto;html=1;exitX=0.5;exitY=1;exitDx=0;exitDy=0;strokeColor=#A8201A;fontColor=#143642;fillColor=#FAE5C7;endArrow=none;endFill=0;" edge="1" parent="1" source="m5P5q0p0tQF4HmMwArrf-218">
          <mxGeometry relative="1" as="geometry">
            <mxPoint x="3003" y="728.5714285714287" as="targetPoint" />
            <Array as="points">
              <mxPoint x="3130" y="729" />
            </Array>
          </mxGeometry>
        </mxCell>
        <mxCell id="m5P5q0p0tQF4HmMwArrf-218" value="Id_Salida" style="ellipse;whiteSpace=wrap;html=1;align=center;rounded=0;labelBackgroundColor=none;fillColor=#FAE5C7;strokeColor=#0F8B8D;fontColor=#143642;" vertex="1" parent="1">
          <mxGeometry x="3080" y="658" width="100" height="35" as="geometry" />
        </mxCell>
        <mxCell id="m5P5q0p0tQF4HmMwArrf-230" style="edgeStyle=orthogonalEdgeStyle;rounded=0;orthogonalLoop=1;jettySize=auto;html=1;exitX=0.5;exitY=1;exitDx=0;exitDy=0;strokeColor=#A8201A;fontColor=#143642;fillColor=#FAE5C7;endArrow=none;endFill=0;" edge="1" parent="1" source="m5P5q0p0tQF4HmMwArrf-219">
          <mxGeometry relative="1" as="geometry">
            <mxPoint x="2874" y="726" as="targetPoint" />
            <Array as="points">
              <mxPoint x="3003" y="726" />
            </Array>
          </mxGeometry>
        </mxCell>
        <mxCell id="m5P5q0p0tQF4HmMwArrf-219" value="Id_EntradaM" style="ellipse;whiteSpace=wrap;html=1;align=center;rounded=0;labelBackgroundColor=none;fillColor=#FAE5C7;strokeColor=#0F8B8D;fontColor=#143642;" vertex="1" parent="1">
          <mxGeometry x="2953" y="668" width="100" height="35" as="geometry" />
        </mxCell>
        <mxCell id="m5P5q0p0tQF4HmMwArrf-226" style="edgeStyle=orthogonalEdgeStyle;rounded=0;orthogonalLoop=1;jettySize=auto;html=1;exitX=0.5;exitY=1;exitDx=0;exitDy=0;entryX=0.25;entryY=0;entryDx=0;entryDy=0;strokeColor=#A8201A;fontColor=#143642;fillColor=#FAE5C7;endArrow=none;endFill=0;" edge="1" parent="1" source="m5P5q0p0tQF4HmMwArrf-221" target="m5P5q0p0tQF4HmMwArrf-210">
          <mxGeometry relative="1" as="geometry" />
        </mxCell>
        <mxCell id="m5P5q0p0tQF4HmMwArrf-221" value="Id_Material" style="ellipse;whiteSpace=wrap;html=1;align=center;rounded=0;labelBackgroundColor=none;fillColor=#FAE5C7;strokeColor=#0F8B8D;fontColor=#143642;" vertex="1" parent="1">
          <mxGeometry x="2445" y="671" width="100" height="35" as="geometry" />
        </mxCell>
        <mxCell id="m5P5q0p0tQF4HmMwArrf-227" style="edgeStyle=orthogonalEdgeStyle;rounded=0;orthogonalLoop=1;jettySize=auto;html=1;exitX=0.5;exitY=1;exitDx=0;exitDy=0;strokeColor=#A8201A;fontColor=#143642;fillColor=#FAE5C7;endArrow=none;endFill=0;" edge="1" parent="1" source="m5P5q0p0tQF4HmMwArrf-222">
          <mxGeometry relative="1" as="geometry">
            <mxPoint x="2544.4285714285716" y="750" as="targetPoint" />
          </mxGeometry>
        </mxCell>
        <mxCell id="m5P5q0p0tQF4HmMwArrf-222" value="StockMaterial" style="ellipse;whiteSpace=wrap;html=1;align=center;rounded=0;labelBackgroundColor=none;fillColor=#FAE5C7;strokeColor=#0F8B8D;fontColor=#143642;" vertex="1" parent="1">
          <mxGeometry x="2572" y="671" width="100" height="35" as="geometry" />
        </mxCell>
        <mxCell id="m5P5q0p0tQF4HmMwArrf-228" style="edgeStyle=orthogonalEdgeStyle;rounded=0;orthogonalLoop=1;jettySize=auto;html=1;exitX=0.5;exitY=1;exitDx=0;exitDy=0;strokeColor=#A8201A;fontColor=#143642;fillColor=#FAE5C7;endArrow=none;endFill=0;" edge="1" parent="1" source="m5P5q0p0tQF4HmMwArrf-225">
          <mxGeometry relative="1" as="geometry">
            <mxPoint x="2620.1428571428573" y="731.4285714285716" as="targetPoint" />
            <Array as="points">
              <mxPoint x="2749" y="724" />
              <mxPoint x="2620" y="724" />
            </Array>
          </mxGeometry>
        </mxCell>
        <mxCell id="m5P5q0p0tQF4HmMwArrf-225" value="CantidadTotal" style="ellipse;whiteSpace=wrap;html=1;align=center;rounded=0;labelBackgroundColor=none;fillColor=#FAE5C7;strokeColor=#0F8B8D;fontColor=#143642;" vertex="1" parent="1">
          <mxGeometry x="2699" y="673" width="100" height="35" as="geometry" />
        </mxCell>
        <UserObject label="&lt;div style=&quot;font-size: 1px&quot;&gt;&lt;font style=&quot;font-size:11.29px;font-family:Helvetica;color:#000000;direction:ltr;letter-spacing:0px;line-height:120%;opacity:1&quot;&gt;Tiene&lt;/font&gt;&lt;font style=&quot;font-size:0.97px;font-family:Helvetica;color:#000000;direction:ltr;letter-spacing:0px;line-height:120%;opacity:1&quot;&gt;&lt;br/&gt;&lt;/font&gt;&lt;/div&gt;" tags="Background" id="m5P5q0p0tQF4HmMwArrf-234">
          <mxCell style="verticalAlign=middle;align=center;overflow=width;vsdxID=10;shape=stencil(nZBLDoQgEERP03uk4wnUuYeJKB0RDDKj3l5Ix/iJcTG7KnhVSRdgMel6VCDFFLzr1UxN0IAlSElWK08hKsAKsGidV513X9uwH+tEJjW4X2pYOJeLFJFiZcvuw6QheyIzcUXzF/bWukcf2b9bL2QUx4ktGcMLnf/vk8QnnhOrDQ==);spacingTop=-3;spacingBottom=-3;spacingLeft=-3;spacingRight=-3;points=[];labelBackgroundColor=none;rounded=0;html=1;whiteSpace=wrap;fillColor=#FAE5C7;strokeColor=#0F8B8D;fontColor=#143642;" vertex="1" parent="1">
            <mxGeometry x="2917" y="808" width="120" height="74" as="geometry" />
          </mxCell>
        </UserObject>
        <mxCell id="m5P5q0p0tQF4HmMwArrf-238" style="edgeStyle=orthogonalEdgeStyle;rounded=0;orthogonalLoop=1;jettySize=auto;html=1;exitX=1;exitY=0.5;exitDx=0;exitDy=0;entryX=0;entryY=0.5;entryDx=0;entryDy=0;strokeColor=#A8201A;fontColor=#143642;fillColor=#FAE5C7;endArrow=none;endFill=0;" edge="1" parent="1" source="m5P5q0p0tQF4HmMwArrf-236" target="m5P5q0p0tQF4HmMwArrf-237">
          <mxGeometry relative="1" as="geometry" />
        </mxCell>
        <mxCell id="m5P5q0p0tQF4HmMwArrf-236" value="Id_SolicitudM" style="ellipse;whiteSpace=wrap;html=1;align=center;fontStyle=4;strokeColor=#0F8B8D;fontColor=#143642;fillColor=#FAE5C7;" vertex="1" parent="1">
          <mxGeometry x="3147" y="878" width="100" height="40" as="geometry" />
        </mxCell>
        <mxCell id="m5P5q0p0tQF4HmMwArrf-280" style="edgeStyle=orthogonalEdgeStyle;rounded=0;orthogonalLoop=1;jettySize=auto;html=1;exitX=0.5;exitY=1;exitDx=0;exitDy=0;strokeColor=#A8201A;fontColor=#143642;fillColor=#FAE5C7;endArrow=none;endFill=0;" edge="1" parent="1" source="m5P5q0p0tQF4HmMwArrf-237" target="m5P5q0p0tQF4HmMwArrf-279">
          <mxGeometry relative="1" as="geometry" />
        </mxCell>
        <mxCell id="m5P5q0p0tQF4HmMwArrf-237" value="solicitudmaterial" style="whiteSpace=wrap;html=1;align=center;rounded=0;labelBackgroundColor=none;fillColor=#FAE5C7;strokeColor=#0F8B8D;fontColor=#143642;" vertex="1" parent="1">
          <mxGeometry x="3315" y="878" width="100" height="41" as="geometry" />
        </mxCell>
        <mxCell id="m5P5q0p0tQF4HmMwArrf-255" style="edgeStyle=orthogonalEdgeStyle;rounded=0;orthogonalLoop=1;jettySize=auto;html=1;exitX=0;exitY=0.5;exitDx=0;exitDy=0;strokeColor=#A8201A;fontColor=#143642;fillColor=#FAE5C7;endArrow=none;endFill=0;" edge="1" parent="1" source="m5P5q0p0tQF4HmMwArrf-239">
          <mxGeometry relative="1" as="geometry">
            <mxPoint x="3405.857142857143" y="692.8571428571429" as="targetPoint" />
          </mxGeometry>
        </mxCell>
        <mxCell id="m5P5q0p0tQF4HmMwArrf-239" value="Id_Plantel" style="ellipse;whiteSpace=wrap;html=1;align=center;rounded=0;labelBackgroundColor=none;fillColor=#FAE5C7;strokeColor=#0F8B8D;fontColor=#143642;" vertex="1" parent="1">
          <mxGeometry x="3488" y="673" width="100" height="40" as="geometry" />
        </mxCell>
        <mxCell id="m5P5q0p0tQF4HmMwArrf-253" style="edgeStyle=orthogonalEdgeStyle;rounded=0;orthogonalLoop=1;jettySize=auto;html=1;exitX=0.5;exitY=1;exitDx=0;exitDy=0;strokeColor=#A8201A;fontColor=#143642;fillColor=#FAE5C7;endArrow=none;endFill=0;" edge="1" parent="1" source="m5P5q0p0tQF4HmMwArrf-240">
          <mxGeometry relative="1" as="geometry">
            <mxPoint x="3352" y="859" as="targetPoint" />
          </mxGeometry>
        </mxCell>
        <mxCell id="m5P5q0p0tQF4HmMwArrf-240" value="cantidad" style="ellipse;whiteSpace=wrap;html=1;align=center;rounded=0;labelBackgroundColor=none;fillColor=#FAE5C7;strokeColor=#0F8B8D;fontColor=#143642;" vertex="1" parent="1">
          <mxGeometry x="3302" y="697" width="100" height="40" as="geometry" />
        </mxCell>
        <mxCell id="m5P5q0p0tQF4HmMwArrf-252" style="edgeStyle=orthogonalEdgeStyle;rounded=0;orthogonalLoop=1;jettySize=auto;html=1;exitX=0.5;exitY=1;exitDx=0;exitDy=0;entryX=0.38;entryY=0.014;entryDx=0;entryDy=0;entryPerimeter=0;strokeColor=#A8201A;fontColor=#143642;fillColor=#FAE5C7;endArrow=none;endFill=0;" edge="1" parent="1" source="m5P5q0p0tQF4HmMwArrf-241" target="m5P5q0p0tQF4HmMwArrf-237">
          <mxGeometry relative="1" as="geometry" />
        </mxCell>
        <mxCell id="m5P5q0p0tQF4HmMwArrf-241" value="Id_Material" style="ellipse;whiteSpace=wrap;html=1;align=center;rounded=0;labelBackgroundColor=none;fillColor=#FAE5C7;strokeColor=#0F8B8D;fontColor=#143642;" vertex="1" parent="1">
          <mxGeometry x="3206" y="773.5" width="81" height="40" as="geometry" />
        </mxCell>
        <mxCell id="m5P5q0p0tQF4HmMwArrf-254" style="edgeStyle=orthogonalEdgeStyle;rounded=0;orthogonalLoop=1;jettySize=auto;html=1;exitX=0;exitY=1;exitDx=0;exitDy=0;strokeColor=#A8201A;fontColor=#143642;fillColor=#FAE5C7;endArrow=none;endFill=0;" edge="1" parent="1" source="m5P5q0p0tQF4HmMwArrf-245">
          <mxGeometry relative="1" as="geometry">
            <mxPoint x="3412" y="876" as="targetPoint" />
            <Array as="points">
              <mxPoint x="3407" y="641" />
              <mxPoint x="3407" y="876" />
            </Array>
          </mxGeometry>
        </mxCell>
        <mxCell id="m5P5q0p0tQF4HmMwArrf-245" value="Id_Laboratorio" style="ellipse;whiteSpace=wrap;html=1;align=center;rounded=0;labelBackgroundColor=none;fillColor=#FAE5C7;strokeColor=#0F8B8D;fontColor=#143642;" vertex="1" parent="1">
          <mxGeometry x="3488" y="607" width="100" height="40" as="geometry" />
        </mxCell>
        <mxCell id="m5P5q0p0tQF4HmMwArrf-257" style="edgeStyle=orthogonalEdgeStyle;rounded=0;orthogonalLoop=1;jettySize=auto;html=1;exitX=1;exitY=0.5;exitDx=0;exitDy=0;strokeColor=#A8201A;fontColor=#143642;fillColor=#FAE5C7;endArrow=none;endFill=0;" edge="1" parent="1" source="m5P5q0p0tQF4HmMwArrf-246">
          <mxGeometry relative="1" as="geometry">
            <mxPoint x="3405.857142857143" y="651.4285714285716" as="targetPoint" />
          </mxGeometry>
        </mxCell>
        <mxCell id="m5P5q0p0tQF4HmMwArrf-246" value="FechaSolicitud" style="ellipse;whiteSpace=wrap;html=1;align=center;rounded=0;labelBackgroundColor=none;fillColor=#FAE5C7;strokeColor=#0F8B8D;fontColor=#143642;" vertex="1" parent="1">
          <mxGeometry x="3284" y="607" width="100" height="40" as="geometry" />
        </mxCell>
        <mxCell id="m5P5q0p0tQF4HmMwArrf-259" style="edgeStyle=orthogonalEdgeStyle;rounded=0;orthogonalLoop=1;jettySize=auto;html=1;exitX=0;exitY=0.5;exitDx=0;exitDy=0;strokeColor=#A8201A;fontColor=#143642;fillColor=#FAE5C7;endArrow=none;endFill=0;" edge="1" parent="1" source="m5P5q0p0tQF4HmMwArrf-247">
          <mxGeometry relative="1" as="geometry">
            <mxPoint x="3407" y="816" as="targetPoint" />
          </mxGeometry>
        </mxCell>
        <mxCell id="m5P5q0p0tQF4HmMwArrf-247" value="Id_Estatus" style="ellipse;whiteSpace=wrap;html=1;align=center;rounded=0;labelBackgroundColor=none;fillColor=#FAE5C7;strokeColor=#0F8B8D;fontColor=#143642;" vertex="1" parent="1">
          <mxGeometry x="3498" y="796" width="100" height="40" as="geometry" />
        </mxCell>
        <mxCell id="m5P5q0p0tQF4HmMwArrf-256" style="edgeStyle=orthogonalEdgeStyle;rounded=0;orthogonalLoop=1;jettySize=auto;html=1;exitX=0;exitY=0.5;exitDx=0;exitDy=0;strokeColor=#A8201A;fontColor=#143642;fillColor=#FAE5C7;endArrow=none;endFill=0;" edge="1" parent="1" source="m5P5q0p0tQF4HmMwArrf-248">
          <mxGeometry relative="1" as="geometry">
            <mxPoint x="3409" y="747" as="targetPoint" />
          </mxGeometry>
        </mxCell>
        <mxCell id="m5P5q0p0tQF4HmMwArrf-248" value="Id_Usuario" style="ellipse;whiteSpace=wrap;html=1;align=center;rounded=0;labelBackgroundColor=none;fillColor=#FAE5C7;strokeColor=#0F8B8D;fontColor=#143642;" vertex="1" parent="1">
          <mxGeometry x="3494" y="726" width="100" height="40" as="geometry" />
        </mxCell>
        <mxCell id="m5P5q0p0tQF4HmMwArrf-260" value="" style="edgeStyle=entityRelationEdgeStyle;fontSize=12;html=1;endArrow=ERone;endFill=1;rounded=0;strokeColor=#A8201A;fontColor=#143642;fillColor=#FAE5C7;" edge="1" parent="1">
          <mxGeometry width="100" height="100" relative="1" as="geometry">
            <mxPoint x="3037" y="846" as="sourcePoint" />
            <mxPoint x="3312" y="883" as="targetPoint" />
          </mxGeometry>
        </mxCell>
        <mxCell id="m5P5q0p0tQF4HmMwArrf-270" style="edgeStyle=orthogonalEdgeStyle;rounded=0;orthogonalLoop=1;jettySize=auto;html=1;exitX=1;exitY=0.25;exitDx=0;exitDy=0;entryX=0;entryY=0.5;entryDx=0;entryDy=0;strokeColor=#A8201A;fontColor=#143642;fillColor=#FAE5C7;endArrow=none;endFill=0;" edge="1" parent="1" source="m5P5q0p0tQF4HmMwArrf-261" target="m5P5q0p0tQF4HmMwArrf-268">
          <mxGeometry relative="1" as="geometry" />
        </mxCell>
        <mxCell id="m5P5q0p0tQF4HmMwArrf-271" style="edgeStyle=orthogonalEdgeStyle;rounded=0;orthogonalLoop=1;jettySize=auto;html=1;exitX=1;exitY=0.25;exitDx=0;exitDy=0;entryX=0;entryY=0.5;entryDx=0;entryDy=0;strokeColor=#A8201A;fontColor=#143642;fillColor=#FAE5C7;endArrow=none;endFill=0;" edge="1" parent="1" source="m5P5q0p0tQF4HmMwArrf-261" target="m5P5q0p0tQF4HmMwArrf-267">
          <mxGeometry relative="1" as="geometry" />
        </mxCell>
        <mxCell id="m5P5q0p0tQF4HmMwArrf-285" style="edgeStyle=orthogonalEdgeStyle;rounded=0;orthogonalLoop=1;jettySize=auto;html=1;exitX=0.5;exitY=1;exitDx=0;exitDy=0;entryX=0.507;entryY=0.089;entryDx=0;entryDy=0;entryPerimeter=0;strokeColor=#A8201A;fontColor=#143642;fillColor=#FAE5C7;endArrow=none;endFill=0;" edge="1" parent="1" source="m5P5q0p0tQF4HmMwArrf-261" target="m5P5q0p0tQF4HmMwArrf-284">
          <mxGeometry relative="1" as="geometry" />
        </mxCell>
        <mxCell id="m5P5q0p0tQF4HmMwArrf-261" value="entradamaterial" style="whiteSpace=wrap;html=1;align=center;rounded=0;labelBackgroundColor=none;fillColor=#FAE5C7;strokeColor=#0F8B8D;fontColor=#143642;" vertex="1" parent="1">
          <mxGeometry x="3419" y="1098" width="100" height="41" as="geometry" />
        </mxCell>
        <mxCell id="m5P5q0p0tQF4HmMwArrf-269" style="edgeStyle=orthogonalEdgeStyle;rounded=0;orthogonalLoop=1;jettySize=auto;html=1;exitX=1;exitY=0.5;exitDx=0;exitDy=0;strokeColor=#A8201A;fontColor=#143642;fillColor=#FAE5C7;endArrow=none;endFill=0;" edge="1" parent="1" source="m5P5q0p0tQF4HmMwArrf-262">
          <mxGeometry relative="1" as="geometry">
            <mxPoint x="3418.7142857142862" y="1118.5714285714287" as="targetPoint" />
          </mxGeometry>
        </mxCell>
        <mxCell id="m5P5q0p0tQF4HmMwArrf-262" value="Id_Entrada" style="ellipse;whiteSpace=wrap;html=1;align=center;fontStyle=4;strokeColor=#0F8B8D;fontColor=#143642;fillColor=#FAE5C7;" vertex="1" parent="1">
          <mxGeometry x="3258" y="1098.5" width="100" height="40" as="geometry" />
        </mxCell>
        <mxCell id="m5P5q0p0tQF4HmMwArrf-267" value="FechaEn" style="ellipse;whiteSpace=wrap;html=1;align=center;rounded=0;labelBackgroundColor=none;fillColor=#FAE5C7;strokeColor=#0F8B8D;fontColor=#143642;" vertex="1" parent="1">
          <mxGeometry x="3604" y="1010" width="100" height="40" as="geometry" />
        </mxCell>
        <mxCell id="m5P5q0p0tQF4HmMwArrf-268" value="Id_Material" style="ellipse;whiteSpace=wrap;html=1;align=center;rounded=0;labelBackgroundColor=none;fillColor=#FAE5C7;strokeColor=#0F8B8D;fontColor=#143642;" vertex="1" parent="1">
          <mxGeometry x="3604" y="950" width="100" height="40" as="geometry" />
        </mxCell>
        <mxCell id="m5P5q0p0tQF4HmMwArrf-277" style="edgeStyle=orthogonalEdgeStyle;rounded=0;orthogonalLoop=1;jettySize=auto;html=1;exitX=0;exitY=0.5;exitDx=0;exitDy=0;strokeColor=#A8201A;fontColor=#143642;fillColor=#FAE5C7;endArrow=none;endFill=0;" edge="1" parent="1" source="m5P5q0p0tQF4HmMwArrf-272">
          <mxGeometry relative="1" as="geometry">
            <mxPoint x="3563" y="1104.2857142857144" as="targetPoint" />
          </mxGeometry>
        </mxCell>
        <mxCell id="m5P5q0p0tQF4HmMwArrf-272" value="NumeroFactura" style="ellipse;whiteSpace=wrap;html=1;align=center;rounded=0;labelBackgroundColor=none;fillColor=#FAE5C7;strokeColor=#0F8B8D;fontColor=#143642;" vertex="1" parent="1">
          <mxGeometry x="3598" y="1140" width="100" height="40" as="geometry" />
        </mxCell>
        <mxCell id="m5P5q0p0tQF4HmMwArrf-276" style="edgeStyle=orthogonalEdgeStyle;rounded=0;orthogonalLoop=1;jettySize=auto;html=1;exitX=0;exitY=0.5;exitDx=0;exitDy=0;strokeColor=#A8201A;fontColor=#143642;fillColor=#FAE5C7;endArrow=none;endFill=0;entryX=1;entryY=0.25;entryDx=0;entryDy=0;" edge="1" parent="1" source="m5P5q0p0tQF4HmMwArrf-273" target="m5P5q0p0tQF4HmMwArrf-261">
          <mxGeometry relative="1" as="geometry">
            <mxPoint x="3574.4285714285716" y="1105.7142857142858" as="targetPoint" />
            <Array as="points">
              <mxPoint x="3562" y="1095" />
              <mxPoint x="3562" y="1106" />
              <mxPoint x="3519" y="1106" />
            </Array>
          </mxGeometry>
        </mxCell>
        <mxCell id="m5P5q0p0tQF4HmMwArrf-273" value="CantidadEnt" style="ellipse;whiteSpace=wrap;html=1;align=center;rounded=0;labelBackgroundColor=none;fillColor=#FAE5C7;strokeColor=#0F8B8D;fontColor=#143642;" vertex="1" parent="1">
          <mxGeometry x="3594" y="1075" width="100" height="40" as="geometry" />
        </mxCell>
        <mxCell id="m5P5q0p0tQF4HmMwArrf-278" style="edgeStyle=orthogonalEdgeStyle;rounded=0;orthogonalLoop=1;jettySize=auto;html=1;exitX=0;exitY=0.5;exitDx=0;exitDy=0;strokeColor=#A8201A;fontColor=#143642;fillColor=#FAE5C7;endArrow=none;endFill=0;" edge="1" parent="1" source="m5P5q0p0tQF4HmMwArrf-274">
          <mxGeometry relative="1" as="geometry">
            <mxPoint x="3564.4285714285716" y="1151.4285714285716" as="targetPoint" />
          </mxGeometry>
        </mxCell>
        <mxCell id="m5P5q0p0tQF4HmMwArrf-274" value="Id_TEntrada" style="ellipse;whiteSpace=wrap;html=1;align=center;rounded=0;labelBackgroundColor=none;fillColor=#FAE5C7;strokeColor=#0F8B8D;fontColor=#143642;" vertex="1" parent="1">
          <mxGeometry x="3598" y="1206" width="100" height="40" as="geometry" />
        </mxCell>
        <UserObject label="&lt;div style=&quot;font-size: 1px&quot;&gt;&lt;font style=&quot;font-size:11.29px;font-family:Helvetica;color:#000000;direction:ltr;letter-spacing:0px;line-height:120%;opacity:1&quot;&gt;Tiene&lt;/font&gt;&lt;font style=&quot;font-size:0.97px;font-family:Helvetica;color:#000000;direction:ltr;letter-spacing:0px;line-height:120%;opacity:1&quot;&gt;&lt;br/&gt;&lt;/font&gt;&lt;/div&gt;" tags="Background" id="m5P5q0p0tQF4HmMwArrf-279">
          <mxCell style="verticalAlign=middle;align=center;overflow=width;vsdxID=10;shape=stencil(nZBLDoQgEERP03uk4wnUuYeJKB0RDDKj3l5Ix/iJcTG7KnhVSRdgMel6VCDFFLzr1UxN0IAlSElWK08hKsAKsGidV513X9uwH+tEJjW4X2pYOJeLFJFiZcvuw6QheyIzcUXzF/bWukcf2b9bL2QUx4ktGcMLnf/vk8QnnhOrDQ==);spacingTop=-3;spacingBottom=-3;spacingLeft=-3;spacingRight=-3;points=[];labelBackgroundColor=none;rounded=0;html=1;whiteSpace=wrap;fillColor=#FAE5C7;strokeColor=#0F8B8D;fontColor=#143642;" vertex="1" parent="1">
            <mxGeometry x="3323" y="972" width="120" height="74" as="geometry" />
          </mxCell>
        </UserObject>
        <mxCell id="m5P5q0p0tQF4HmMwArrf-281" value="" style="edgeStyle=entityRelationEdgeStyle;fontSize=12;html=1;endArrow=ERone;endFill=1;rounded=0;strokeColor=#A8201A;fontColor=#143642;fillColor=#FAE5C7;exitX=0.976;exitY=0.494;exitDx=0;exitDy=0;exitPerimeter=0;" edge="1" parent="1" source="m5P5q0p0tQF4HmMwArrf-279">
          <mxGeometry width="100" height="100" relative="1" as="geometry">
            <mxPoint x="3319" y="1206" as="sourcePoint" />
            <mxPoint x="3419" y="1106" as="targetPoint" />
          </mxGeometry>
        </mxCell>
        <mxCell id="m5P5q0p0tQF4HmMwArrf-283" value="salidamaterial" style="whiteSpace=wrap;html=1;align=center;rounded=0;labelBackgroundColor=none;fillColor=#FAE5C7;strokeColor=#0F8B8D;fontColor=#143642;" vertex="1" parent="1">
          <mxGeometry x="3443" y="1380" width="100" height="41" as="geometry" />
        </mxCell>
        <UserObject label="&lt;div style=&quot;font-size: 1px&quot;&gt;&lt;font style=&quot;font-size:11.29px;font-family:Helvetica;color:#000000;direction:ltr;letter-spacing:0px;line-height:120%;opacity:1&quot;&gt;Tiene&lt;/font&gt;&lt;font style=&quot;font-size:0.97px;font-family:Helvetica;color:#000000;direction:ltr;letter-spacing:0px;line-height:120%;opacity:1&quot;&gt;&lt;br/&gt;&lt;/font&gt;&lt;/div&gt;" tags="Background" id="m5P5q0p0tQF4HmMwArrf-284">
          <mxCell style="verticalAlign=middle;align=center;overflow=width;vsdxID=10;shape=stencil(nZBLDoQgEERP03uk4wnUuYeJKB0RDDKj3l5Ix/iJcTG7KnhVSRdgMel6VCDFFLzr1UxN0IAlSElWK08hKsAKsGidV513X9uwH+tEJjW4X2pYOJeLFJFiZcvuw6QheyIzcUXzF/bWukcf2b9bL2QUx4ktGcMLnf/vk8QnnhOrDQ==);spacingTop=-3;spacingBottom=-3;spacingLeft=-3;spacingRight=-3;points=[];labelBackgroundColor=none;rounded=0;html=1;whiteSpace=wrap;fillColor=#FAE5C7;strokeColor=#0F8B8D;fontColor=#143642;" vertex="1" parent="1">
            <mxGeometry x="3409" y="1229" width="120" height="74" as="geometry" />
          </mxCell>
        </UserObject>
        <mxCell id="m5P5q0p0tQF4HmMwArrf-287" style="edgeStyle=orthogonalEdgeStyle;rounded=0;orthogonalLoop=1;jettySize=auto;html=1;exitX=1;exitY=0.5;exitDx=0;exitDy=0;entryX=0;entryY=0.488;entryDx=0;entryDy=0;entryPerimeter=0;strokeColor=#A8201A;fontColor=#143642;fillColor=#FAE5C7;endArrow=none;endFill=0;" edge="1" parent="1" source="m5P5q0p0tQF4HmMwArrf-286" target="m5P5q0p0tQF4HmMwArrf-283">
          <mxGeometry relative="1" as="geometry" />
        </mxCell>
        <mxCell id="m5P5q0p0tQF4HmMwArrf-286" value="Id_Salida" style="ellipse;whiteSpace=wrap;html=1;align=center;fontStyle=4;strokeColor=#0F8B8D;fontColor=#143642;fillColor=#FAE5C7;" vertex="1" parent="1">
          <mxGeometry x="3287" y="1390" width="100" height="40" as="geometry" />
        </mxCell>
        <mxCell id="m5P5q0p0tQF4HmMwArrf-300" style="edgeStyle=orthogonalEdgeStyle;rounded=0;orthogonalLoop=1;jettySize=auto;html=1;exitX=1;exitY=0;exitDx=0;exitDy=0;entryX=0.157;entryY=1.01;entryDx=0;entryDy=0;entryPerimeter=0;strokeColor=#A8201A;fontColor=#143642;fillColor=#FAE5C7;endArrow=none;endFill=0;" edge="1" parent="1" source="m5P5q0p0tQF4HmMwArrf-293" target="m5P5q0p0tQF4HmMwArrf-283">
          <mxGeometry relative="1" as="geometry" />
        </mxCell>
        <mxCell id="m5P5q0p0tQF4HmMwArrf-293" value="Id_MaterialSal" style="ellipse;whiteSpace=wrap;html=1;align=center;rounded=0;labelBackgroundColor=none;fillColor=#FAE5C7;strokeColor=#0F8B8D;fontColor=#143642;" vertex="1" parent="1">
          <mxGeometry x="3295" y="1477" width="100" height="40" as="geometry" />
        </mxCell>
        <mxCell id="m5P5q0p0tQF4HmMwArrf-302" style="edgeStyle=orthogonalEdgeStyle;rounded=0;orthogonalLoop=1;jettySize=auto;html=1;exitX=0;exitY=0;exitDx=0;exitDy=0;strokeColor=#A8201A;fontColor=#143642;fillColor=#FAE5C7;endArrow=none;endFill=0;" edge="1" parent="1" source="m5P5q0p0tQF4HmMwArrf-294">
          <mxGeometry relative="1" as="geometry">
            <mxPoint x="3458.7142857142862" y="1428.571428571429" as="targetPoint" />
            <Array as="points">
              <mxPoint x="3664" y="1487" />
              <mxPoint x="3459" y="1487" />
            </Array>
          </mxGeometry>
        </mxCell>
        <mxCell id="m5P5q0p0tQF4HmMwArrf-294" value="Id_Solicitud" style="ellipse;whiteSpace=wrap;html=1;align=center;rounded=0;labelBackgroundColor=none;fillColor=#FAE5C7;strokeColor=#0F8B8D;fontColor=#143642;" vertex="1" parent="1">
          <mxGeometry x="3649" y="1488" width="100" height="40" as="geometry" />
        </mxCell>
        <mxCell id="m5P5q0p0tQF4HmMwArrf-299" style="edgeStyle=orthogonalEdgeStyle;rounded=0;orthogonalLoop=1;jettySize=auto;html=1;exitX=0.5;exitY=0;exitDx=0;exitDy=0;entryX=0.171;entryY=1.08;entryDx=0;entryDy=0;entryPerimeter=0;strokeColor=#A8201A;fontColor=#143642;fillColor=#FAE5C7;endArrow=none;endFill=0;" edge="1" parent="1" source="m5P5q0p0tQF4HmMwArrf-295" target="m5P5q0p0tQF4HmMwArrf-283">
          <mxGeometry relative="1" as="geometry" />
        </mxCell>
        <mxCell id="m5P5q0p0tQF4HmMwArrf-295" value="CantidadSal" style="ellipse;whiteSpace=wrap;html=1;align=center;rounded=0;labelBackgroundColor=none;fillColor=#FAE5C7;strokeColor=#0F8B8D;fontColor=#143642;" vertex="1" parent="1">
          <mxGeometry x="3409" y="1497" width="100" height="40" as="geometry" />
        </mxCell>
        <mxCell id="m5P5q0p0tQF4HmMwArrf-301" style="edgeStyle=orthogonalEdgeStyle;rounded=0;orthogonalLoop=1;jettySize=auto;html=1;exitX=0;exitY=0;exitDx=0;exitDy=0;strokeColor=#A8201A;fontColor=#143642;fillColor=#FAE5C7;endArrow=none;endFill=0;" edge="1" parent="1" source="m5P5q0p0tQF4HmMwArrf-296">
          <mxGeometry relative="1" as="geometry">
            <mxPoint x="3458.7142857142862" y="1425.7142857142858" as="targetPoint" />
            <Array as="points">
              <mxPoint x="3544" y="1489" />
              <mxPoint x="3459" y="1489" />
            </Array>
          </mxGeometry>
        </mxCell>
        <mxCell id="m5P5q0p0tQF4HmMwArrf-296" value="FechaSal" style="ellipse;whiteSpace=wrap;html=1;align=center;rounded=0;labelBackgroundColor=none;fillColor=#FAE5C7;strokeColor=#0F8B8D;fontColor=#143642;" vertex="1" parent="1">
          <mxGeometry x="3529" y="1497" width="100" height="40" as="geometry" />
        </mxCell>
        <mxCell id="m5P5q0p0tQF4HmMwArrf-298" value="" style="edgeStyle=entityRelationEdgeStyle;fontSize=12;html=1;endArrow=ERone;endFill=1;rounded=0;strokeColor=#A8201A;fontColor=#143642;fillColor=#FAE5C7;" edge="1" parent="1" target="m5P5q0p0tQF4HmMwArrf-283">
          <mxGeometry width="100" height="100" relative="1" as="geometry">
            <mxPoint x="3530" y="1266" as="sourcePoint" />
            <mxPoint x="3563" y="1200" as="targetPoint" />
          </mxGeometry>
        </mxCell>
      </root>
    </mxGraphModel>
  </diagram>
</mxfile>
